<mxfile host="app.diagrams.net" agent="Mozilla/5.0 (Macintosh; Intel Mac OS X 10_15_7) AppleWebKit/537.36 (KHTML, like Gecko) Chrome/132.0.0.0 Safari/537.36" version="26.0.11">
  <diagram name="Page-1" id="DBpcRmfLsE_rtOGootZk">
    <mxGraphModel dx="2593" dy="1401" grid="1" gridSize="10" guides="0" tooltips="1" connect="0" arrows="0" fold="1" page="1" pageScale="1" pageWidth="1920" pageHeight="1080" math="0" shadow="0">
      <root>
        <mxCell id="0" />
        <mxCell id="1" parent="0" />
        <mxCell id="b--Z6cr3aXD35UnNznCl-1" value="" style="shape=image;verticalLabelPosition=bottom;labelBackgroundColor=default;verticalAlign=top;imageAspect=0;image=data:image/png,iVBORw0KGgoAAAANSUhEUgAAAJUAAARqCAYAAABBKTeQAAAAAXNSR0IArs4c6QAAAARnQU1BAACxjwv8YQUAAAAJcEhZcwAAEnQAABJ0Ad5mH3gAAAASdEVYdFNvZnR3YXJlAEdyZWVuc2hvdF5VCAUAABzfSURBVHhe7d35f1fVncfx+TuGJmQjIUAgCZAIgYSwBghiq10UFSg4TFtFp3UZnbpMF7FQauuGC+KCkrCpBTUiIhUVCcoOI1jAVgIqEggPNCGZHz7jPX0kj9x8T5DO4433RF8/PB+P5p5zvvFLX7333Kv1/su/fifDACWighxRQY6oIEdUkCMqyBEV5IgKckQFOaKCXLBRZWTl2qOPPW7Hjx+3xpMnbVlNreXlF3jnIizBRvXU089Yff1WKxs5yoaUDLN1r653fHMRliCjKh5SamfPnrXKMeM7jhUWl1hLS4tNnnJJbC7CE2RUc6//uf3tb39POf7uu+/Z/AULU44jLEFGde8f77NNm95MOb5y1Wqn63GEJcioHnl0sXf/9PTSZ+2ll+tSjkfa2trOi29t6Hzfw8e3NgmcqSAXZFTX3/CLbvdUC37/h5TjCEuQUXV399fc3GLVF383NhfhCTKqyNJnnrUtW+rtouHlLrJ161619a9t8M5FWIKNKnqi/tjiJR1P1GtqlvNEvYcINir0XEQFOaKCHFFBjqggR1SQIyrIERXkiApyRAU5ooIcUUGOqCBHVJAjKsgRFeSICnJEBTmighxRQY6oIEdUkCMqyBEV5IgKckQFOaKCHFFBjqggR1SQIyrIERXkiApyRAU5ooIcUUGOqCBHVJAjKsgRFeSICnJEBblgo8rJ7WeLH19iDQ0N1tjYaGvWvuheeuSbi7AEG1X0Lpq3N7/jXng0YGCRrX3xJXvjjU3euQhLkFGl9c627dt3WMWosR3HxoyrstbWVuuT1y82F+HpMXuqCVXV7n1/0du1fOMIR/BRpWdkW+XocfbW25vtgQcXeecgLMFHNe+e+e6l03v27LWhpcO9cyLzFyw8L761ofN9Dx/f2iQkHlVJaVnsjeWzrpkTG++Vlunu+pY88aS7E+xuT+X7Q/bxrQ2d73v4+NYmocfsqaLN+5kzZ2zaldO94whHkFFVTay23bv3xDbl0RmqubnZLvvB5bG5CE+QUaVn5Nj+/QesdvlKKywa6qx+7nnbuXOXG/OtQTiCvfxFDz3r6ta5F3N//PEntnLVap6o9xA9Zk+FnoOoIEdUkCMqyBEV5IgKckQFOaKCHFFBjqggR1SQIyrIERXkiApyRAU5ooIcUUGOqCBHVJAjKsgRFeSICnJEBTmighxRQY6oIEdUkCMqyBEV5IgKckQFOaKCHFFBjqggR1SQIyrIERXkiApyRAU5ooIcUUGOqCBHVJDrEVE98uhiO3DgA8vrO8A7jrAEH9WVV8+006dPW+WY8d5xhCfoqPoXFFnD0aN27dwbvOMIU9BRvfDCGnvyqaXeMYQr2KhmzJxtLS0t7sWRTU1NVl+/1SZVT/XORViCjWrvvn0upPKKMe4yuPjxJe6FkgMGFnnnd36597n41obO9z18fGuTkHhUvre9Dysrd/95RHllx7z0jGw7euyYXXvd9bH1CE+QZ6qJk6ZYc3NLyvEtW+pt3j3zU44jLEFGld9/kLW2trr3KLcf653Zx71LedbsObG5CE+we6ra2hW24fWNNrR0uHvb+7KaWtuxY6el9c72zkc4go0qu0++PbZ4iZ04ccLd/a1+7nkrGFTsnYuwBBsVei6ighxRQY6oIEdUkCMqyBEV5IgKckQFOaKCHFFBjqggR1SQIyrIERXkiApyRAU5ooIcUUGOqCBHVJAjKsgRFeSICnJEBTmighxRQY6oIEdUkCMqyBEV5IgKckQFOaKCHFFBjqggR1SQIyrIERXkiApyRAU5ooJcsFH17TfQnnjiKWtoaLCTJ0/Z00uf5cXcPUSwUW3c+Bf785q1Vjyk1AYWDrYVK1e5n31zEZYgoxo+osK9RLLzC47aX9fW3ZtJEY4goxpfNdlFFV0C24/l5Re4qCZOvjg2F+EJMqqMrFw7cuSI20f1G1BohcUl9tzzL7jQBg+9yLsG4Qh2TxWdraLX254+fdp27drtNuzbtm/3zo3MX7DwvPjWhs73PXx8a5OQeFS+F3N3nXPFtKvd2LSrZqSMtfP9Ifv41obO9z18fGuTEOyZql1Obj87/OGH9uc/c+fXUwQf1aKHH3WvvI3eo+wbR3iCjmripCl29uxZ+8WNN3vHEaZgo0rPyLbdu/fY+tc2WK+0TO8chCn4yx96HqKCHFFBjqggR1SQIyrIERXkiApyRAU5ooIcUUGOqCBHVJAjKsgRFeSICnJEBTmighxRQY6oIEdUkCMqyBEV5IgKckQFOaKCHFFBjqggR1SQIyrIERXkiApyRAU5ooIcUUGOqCBHVJAjKsgRFeSICnJEBTmighxRQY6oIEdUkCMqyBEV5IgKckQFOaKCHFFBjqggR1SQIyrIERXkiApyRAU5ooIcUUGOqCBHVJAjKsgRFeSICnJEBTmighxRQY6oIEdUkCMqyBEV5IgKckQFOaKCHFFBjqggR1SQIyrIERXkiApyRAU5ooIcUUGOqCBHVJAjKsgRFeSICnJEBTmighxRQY6oIEdUkCMqyBEV5IgKckQFOaKCHFFBjqggR1SQIyrIERXkiApyRAU5ooIcUUGOqCBHVJAjKsgRFeSICnJEBTmighxRQY6oIEdUkCMqyBEV5IgKckQFOaKCHFFBjqggR1SQIyrIERXkiApyRAU5ooIcUUGOqCBHVJAjKsgRFeSICnJEBTmighxRQY6oIEdUkCMqyBEV5IgKckQFOaKCHFFBjqggR1SQIyrIJR7VL2682c6ePWsjK0bHjmdm59lDix62hoYG++STT622doX1G1AYm4MwJRrVHXf+ypqbW6ytrS0lqgcfWmTvvrfNSi8aYYVFQ+3V9a9ZXd262ByEKbGofnv3PXbixAmbdc0cb1R///tHNmv2nI6fJ06aYi0tLZaV0zc2D+FJLKorpl1toyrHubOQL6roshcF1/7zpOqpdubMGUvPyInNQ3gS31N1F9Uf7v2Tu/yVlJa5OeteXW/zFyyMzUGYgo0qL7/Atm3f7sYihw4ftglV1bE5nbXP+yq+taHzfQ8f39okXPCoojNN5y/e+ZIW8UWVnpFtO3fuslWrn7PC4hLrX1BkDz/ymJ061eR+7rwe4QnyTPW9y37ojnV+hNArLdMaGxtt7vU/7ziGMAUZ1dRLLnXHoktg+7HvpGfZZ599FrsjRJiCjCp68Hnw0CFbvmKVG4/OWO5B6NGjlt9/UGw9wpNYVO2XuK6iPVg0PnxEha1Z+6J7mh49z1r/2garHDM+5XMQnsTPVPjmISrIERXkiApyRAU5ooIcUUGOqCBHVJAjKsgRFeSICnJEBTmighxRQY6oIEdUkCMqyBEV5IgKckQFOaKCHFFBjqggR1SQIyrIERXkiApyRAU5ooIcUUGOqCBHVJAjKsgRFeSICnJEBTmighxRQY6oIEdUkCMqyBEV5IgKckQFOaKCHFFBjqggR1SQIyrIERXkiApyRAU5ooIcUUGOqCBHVJAjKsgRFeSICnJEBTmighxRQY6oIEdUkCMqyBEV5IgKckQFOaKCHFFBjqggR1SQIyrIERXkiApyRAU5ooJcYlH1zsi0+24Zah+tHWufvTrOVs4fbgX9sjvGc3Ky7PE7S+3oy2Pt5Gvjbc29ZVZUkBP7DIQpsagevq3E3ls6yoYN6WMD+2fbK/ePtPUPjewYr7l7mG1eUmEXDc61AV/GtvaPZbbpsfLYZyBMiUQVnaWaXp9gkyvzO45NKO9rbW9XWW6fLEtLz7Qdz4yyiovyOsbHlOW58T45mR3HEKZEooqiGT60T+xY1ZdR/e/mKisc4L/ERdG1vFllGV8G6RtHOILZqN9/S4kdfmFMyvH03hlWOSzX3v7yUvjgrSUp4whPEFGNG9nXmjdNsOumDUoZmzd3sDuD7a2ttJKi+Nmts/9ZUXlefGtD5/sePr61SbjgUUUhRFG0m31ZQWy8eGAfdwe4/HfDY8fb9UrLcHd9T9xVag0vje12TzXqy/3X+fCtDZ3ve/j41iYh0TNVfl627fvyf2FvfnlXF23efXPaRfuwz9+YYNOmDPCOIxyJRZWVlWXvLCm3vctHW15uVmws2rTvqamMbcqjM1S0Ub+sqn9sLsKTSFTRWafuvhHusjd4UOrdXrQ5P7BqtNXeM9zdDUZW/3647Vo2yo11nY+wJBLVjEsGuP1V9Kzq7FsTYnuuq6b+40wUPfSMwouetn/yyj+euPNEvWdIdE+FbyaighxRQY6oIEdUkCMqyBEV5IgKckQFOaKCHFFBjqggR1SQIyrIERXkiApyRAU5ooIcUUGOqCBHVJAjKsgRFeSICnJEBTmighxRQY6oIEdUkCMqyBEV5IgKckQFOaKCHFFBjqggR1SQIyrIERXkiApyRAU5ooIcUUGOqCBHVJAjKsgRFeSICnJEBTmighxRQY6oIEdUkCMqyBEV5IgKckQFOaKCHFFBjqggl1hUvTP72J/ue8A++uiIHT9+3FauWm0Fg4rdWPXF37W2tjavhxY9nPJZCEtiUS1a9Ii9+942G1ZWbgMLB1td3Tp7df1r3rmRfgMK7bPPPrNZs+d4xxGORKKKzlKnTjXZ5CmXdBybUFVtra2tltu3f2xuu3n3zLeDhw7Zd9KzvOMIRyJRpfXOtuEjKmLHqiZWu8tbYdHQ2PFIRlauHT12zG697ZcpYwhPMBv1++5/0A4dPuwdu+E/bnT7ruw++d5xhCWIqMZNmGRffPGFXTv3hpSxXmmZtnffPvvDvX9MGets/oKF58W3NnS+7+HjW5uECx5VSWlZ7O5t1jXxjXbR4FJ3B7h8xarY8XbTrpxun3/+uQ0qHOIdb+f7Q/bxrQ2d73v4+NYmIdEzVX7/Qe4stGnTm27z7puzceNf7Jlnl3nHEKbEosrK6WubN79je/bus7z8Au+cseMnujvCilFjveMIUyJRRXd/0XOp6LJXPKTUOycSXRLXrXvVO4ZwJRLV9Bmz3P4qelbV0tIS23NdNX2mmxPttaLxiy+5NGU9wpbongrfTEQFOaKCHFFBjqggR1SQIyrIERXkiApyRAU5ooIcUUGOqCBHVJAjKsgRFeSICnJEBTmighxRQY6oIEdUkCMqyBEV5IgKckQFOaKCHFFBjqggR1SQIyrIERXkiApyRAU5ooIcUUGOqCBHVJAjKsgRFeSICnJEBTmighxRQY6oIEdUkCMqyBEV5IgKckQFOaKCHFFBjqggR1SQIyrIERXkiApyRAU5ooIcUUGOqCBHVJAjKsgRFeSICnJEBTmighxRQY6oIEdUkCMqyBEV5IgKckQFOaKCHFFBjqggR1SQIyrIERXkiApyRAU5ooIcUUGOqCBHVJAjKsgRFeSICnJEBTmighxRQY6oIEdUkCMqyBEV5IgKckQFOaKCHFFBjqggR1SQIyrIERXkiApyRAU5ooIcUUGOqCBHVJAjKsgRFeSICnJEBTmighxRQY6oIEdUkCMqyBEV5IgKckQFOaKCHFFBjqggR1SQIyrIERXkiApyRAU5ooIcUUGOqCBHVJAjKsgRFeSICnJEBTmighxRQY6oIEdUkCMqyBEV5IgKckQFOaKCHFFBjqggR1SQSyyqnNx+tvjxJdbQ0GCNjY22Zu2LVlhc4p37yKOL7cCBDyyv7wDvOMKSWFQ1Ncvt7c3v2EXDy23AwCJb++JL9sYbm1LmXXn1TDt9+rRVjhmfMoYwJRJVWu9s2759h1WMGttxbMy4KmttbbU+ef06jvUvKLKGo0ft2rk3dBxD+ILZU02oqrbm5hbLyMrtOPbCC2vsyaeWxuYhfIlHlZ6RbZWjx9lbb2+2Bx5c1HF8xszZ1tLSYjt37rKmpiarr99qk6qnxtYiTIlHNe+e+dbW1mZ79uy1oaXDO47v3bfPhVReMcZdBqNN/fHjx93+q/P6dtFnnA/f2tD5voePb20SLnhUJaVlsS8+65o5sfFeaZnurm/JE0+6O8FoTzWsrNzNHVFe2TEvOqMdPXbMrr3u+th6hCeYPVW0eT9z5oxNu3K6TZw0xe2vus7ZsqXendm6HkdYEomqamK17d69J7Ypj85Qzc3NdtkPLrf8/oPcnWD0uKF9vHdmH/v4409s1uz4mQ7hSSSq9Iwc27//gNUuX2mFRUOd1c897zbl0Vg0p7Z2hW14faPbZ0Xjy2pqbceOne6M1vXzEJbELn/RWaiubp3bfEdnoJWrVseeqGf3ybfHFi+xEydOuLu/KLqCQcWxz0CYgtlT4ZuDqCBHVJAjKsgRFeSICnJEBTmighxRQY6oIEdUkCMqyBEV5IgKckQFOaKCHFFBjqggR1SQIyrIERXkiApyRAU5ooIcUUGOqCBHVJAjKsgRFeSICnJEBTmighxRQY6oIEdUkCMqyBEV5IgKckQFOaKCHFFBjqggR1SQIyrIERXkiApyRAU5ooIcUUGOqCBHVJAjKsgRFeSICnJEBTmighxRQY6oIEdUkCMqyBEV5IgKckQFOaKCHFFBjqggR1SQIyrIERXkiApyRAU5ooIcUUGOqCBHVJAjKsgRFeSICnJEBTmighxRQY6oIEdUkCMqyBEV5IgKckQFOaKCHFFBjqggR1SQIyrIERXkiApyRAU5ooIcUUGOqCBHVJAjKsgRFeSICnJEBTmighxRQY6oIEdUkCMqyBEV5IgKckQFOaKCHFFBjqggR1SQIyrIERXkiApyRAU5ooIcUUGOqCBHVJAjKsgRFeSICnJEBTmighxRQY6oIEdUkCMqyBEV5IgKckQFOaKCHFFBjqggR1SQIyrIERXkiApyRAU5ooIcUUGOqCBHVJAjKsgRFeSCiOqq6TOtra3NqiZWdxzrlZZpp041uePt6uu3xtYhTIlHNbBwsB079nFKVENKhtmnn34am4ueIfGo6urW2bbt2+3IkSOxqC6/4irbsqU+Nhc9Q6JR3XjTLXby5CkbVlaeEtXtd9xlNTXLY/PRMyQWVRRSU1OT/eSn17mfu0b11NPPWGNjo4uu4ehRe3ZZjeX3H9QxjnAlElV6RrZt3fquC6X9WNeoioeU2viqyZaZnWflFWPc/JfrXukY72r+goXnxbc2dL7v4eNbm4QLHlVJaVnsDm7WNXPcH8D77++3nNx+HfO6RtXVlKnfc+vz8gu8413/gLvjWxs63/fw8a1NQiJnqg2vb4yF1lm0cfetie4Go/GRFaO94whHohv1zr7qTDV9xiz33Cq6HPrGEY4go4rCqV2+0j1WiC6Rk6qn2sGDB+3Ou36dsg7hCTKq9Iwc+81v59mBAx9Yc3OzHTp82G665Vb3lL3rOoQnmKjwzUFUkCMqyBEV5IgKckQFOaKCHFFBjqggR1SQIyrIERXkiApyRAU5ooIcUUGOqCBHVJAjKsgRFeSICnJEBTmighxRQY6oIEdUkCMqyBEV5IgKckQFOaKCHFFBjqggR1SQIyrIERXkiApyRAU5ooIcUUGOqCBHVJAjKsgRFeSICnJEBTmighxRQY6oIEdUkCMqyBEV5IgKckQFOaKCHFFBjqggR1SQIyrIERXkiApyRAU5ooIcUUGOqCBHVJAjKsgRFeSICnJEBTmighxRQY6oIEdUkCMqyBEV5IgKckQFOaKCHFFBjqggR1SQIyrIERXkiApyRAU5ooIcUUGOqCBHVJAjKsgRFeSICnJEBTmighxRQY6oIEdUkCMqyBEV5IgKckQFOaKCHFFBjqggR1SQIyrIERXkiApyRAU5ooIcUUGOqCBHVJAjKsgRFeSICnJEBTmighxRQY6oIEdUkCMqyBEV5IgKckQFOaKCHFFBjqggR1SQIyrIERXkiApyRAU5ooIcUUGOqCBHVJAjKsgRFeSICnJEBTmighxRQY6oIEdUkCMqyBEV5IgKckQFucSi6pWWaadONVlbW1uH+vqt3rlXTZ/pxqsmVnvHEZbEohpSMsw+/fRT71hnAwsH27FjHxNVD5JYVJdfcZVt2VLvHeusrm6dbdu+3Y4cOUJUPURiUd1+x11WU7PcO9buxptusZMnT9mwsnKi6kESi+qpp5+xxsZGF03D0aP27LIay+8/qGM8Cqmpqcl+8tPr3M9E1XMkFlXxkFIbXzXZMrPzrLxijG3d+q69XPeKG0vPyHY/R6G1z/+qqDpv+M/FtzZ0vu/h41ubhAseVUlpWeyLz7pmjnfelKnfc+N5+QU2f8FCe//9/ZaT269jnDNVz5HYmaqr6G4wimpkxWjb8PrGWIidRRt333qEI5iops+Y5Z5bRZdD3zhnqp4jkaiicGqXr3SPFaJL3KTqqXbw4EG7865fe+dHiKrnSCSq9Iwc+81v59mBAx9Yc3OzHTp82G665Vb3lN03P0JUPUcwlz98cxAV5IgKckQFOaKCHFFBjqggR1SQIyrIERXkiApyRAU5ooIcUUGOqCBHVJAjKsgRFeSICnJEBTmighxRQY6oIEdUkCMqyBEV5IgKckQFOaKCHFFBjqggR1SQIyrIERXkiApyRAU5ooIcUUGOqCBHVJAjKsgRFeSICnJEBTmighxRQY6oIEdUkCMqyBEV5IgKckQFOaKCHFFBjqggR1SQIyrIERXkiApyRAU5ooIcUUGOqCBHVJAjKsgRFeSICnJEBTmighxRQY6oIEdUkCMqyBEV5IgKckQFOaKCHFFBjqggR1SQIyrIERXkiApyRAU5ooIcUUGOqCBHVJAjKsgRFeSICnJEBTmighxR4Sv1Ssu0S7//Q1u1arV3vCuiQrfSemfbjB/PtrpX1tn+/fsd37yuiAopsnL62nVzb7BNm97siImo8P+S33+g3XrbL23r1q0pMbXzreuKqGCFxUPt7nm/s507d3pD6sy3viui+hYrG1Fh993/oO3bt88bkI/vc7oiqm+hCVWT7cknn7b333/fG865+D6vK6L6FiKqhOzff+CC8/3erxOXP1wwbNRxwfBIARcMDz9xwfC3aXDB8DeUkTiighxRQY6oIEdUkCMqyBEV5IgKckQFOaKCHFFBjqggR1SQ+9ZF1dLSYm1tbTasrNw73m7s+IluXmNjo3e8s01vvuXm/uzaubHj7b/rXNa/tiG25t/m/NT9c0zR7/3888/tr389aIsWPWKFxSWxeSEjqm4kEdWTTy31zolEfx2XfPey2OeHiqi6oYzqq35X5Ac/usLNjdb8+jd3W/GQUsvuk2+jx06w+x94yP11TKqe6l0bGqLqxtcdVXSJi+Y+vuQJ73hPQlTd+LqjemjRw27uHXf+yjvekxBVN77uqKL9Umtrq3300RGbUFXtndNTEFU3vu6oIrff+d/W3Nzs4tq48S92483/aYMKh3jnhoyouqGMqjs1Nctj8yNlI0e5jfnBgwfdnOgz6urWWeWY8SlzQ0VU3Ugqqs4qRo11e63m5hb3zIq7v0Cdb1TDR1S4edF/odH//803p93Onbvc3BkzZ8eOn+/v+ipz/v1n7nO2bKn3joeGqLqRmZ1nZ86ccXMv/f6PvHMi/QYUun1QNG9U5bjYmCqq6JlV9DnHjn3sHQ8NUZ3DmrUvurnRmSgjK9c7p/0puO/f4vLP/K6Jky+2wUMv8o7Nvf7n7nO2bd/uHQ8NUZ1DtKc5ffq0m7933z67YtrVltu3vzuLTZw0xTa8vtGNRabPmJWy/nx/V2HRUGtqanLmL1joNutRxEWDS+3mW26zkydPuc/55e13eteH5lsbVXei/2I7z49CijbrvrmRaM9123/dHlvT7p8J+J7fLTjnX9tLL9dZesa593ahIKouukYVic4kf7rvAduzZ68bj/Za0T89EP3b6MorxqTMb/fPRBUZN2GSLauptQ8//Jt98cUXLuY333rbXf6if5+Bb02IvnVR4cIjKsgRFeSICnJEBTmighxRQY6oIEdUkCMqyBEVxDLs/wDBEhfXizOaAgAAAABJRU5ErkJggg==;imageBorder=default;aspect=fixed;" vertex="1" parent="1">
          <mxGeometry x="80" y="40" width="135" height="1000" as="geometry" />
        </mxCell>
        <mxCell id="b--Z6cr3aXD35UnNznCl-2" value="" style="rounded=0;whiteSpace=wrap;html=1;gradientColor=light-dark(#000000,#006633);fillColor=light-dark(#FFFFFF,#990000);strokeColor=none;opacity=25;" vertex="1" parent="1">
          <mxGeometry x="80" y="40" width="135" height="1000" as="geometry" />
        </mxCell>
        <mxCell id="b--Z6cr3aXD35UnNznCl-3" value="" style="shape=image;verticalLabelPosition=bottom;labelBackgroundColor=default;verticalAlign=top;imageAspect=0;image=data:image/png,iVBORw0KGgoAAAANSUhEUgAAAJUAAARqCAYAAABBKTeQAAAAAXNSR0IArs4c6QAAAARnQU1BAACxjwv8YQUAAAAJcEhZcwAAEnQAABJ0Ad5mH3gAAAASdEVYdFNvZnR3YXJlAEdyZWVuc2hvdF5VCAUAABzfSURBVHhe7d35f1fVncfx+TuGJmQjIUAgCZAIgYSwBghiq10UFSg4TFtFp3UZnbpMF7FQauuGC+KCkrCpBTUiIhUVCcoOI1jAVgIqEggPNCGZHz7jPX0kj9x8T5DO4433RF8/PB+P5p5zvvFLX7333Kv1/su/fifDACWighxRQY6oIEdUkCMqyBEV5IgKckQFOaKCXLBRZWTl2qOPPW7Hjx+3xpMnbVlNreXlF3jnIizBRvXU089Yff1WKxs5yoaUDLN1r653fHMRliCjKh5SamfPnrXKMeM7jhUWl1hLS4tNnnJJbC7CE2RUc6//uf3tb39POf7uu+/Z/AULU44jLEFGde8f77NNm95MOb5y1Wqn63GEJcioHnl0sXf/9PTSZ+2ll+tSjkfa2trOi29t6Hzfw8e3NgmcqSAXZFTX3/CLbvdUC37/h5TjCEuQUXV399fc3GLVF383NhfhCTKqyNJnnrUtW+rtouHlLrJ161619a9t8M5FWIKNKnqi/tjiJR1P1GtqlvNEvYcINir0XEQFOaKCHFFBjqggR1SQIyrIERXkiApyRAU5ooIcUUGOqCBHVJAjKsgRFeSICnJEBTmighxRQY6oIEdUkCMqyBEV5IgKckQFOaKCHFFBjqggR1SQIyrIERXkiApyRAU5ooIcUUGOqCBHVJAjKsgRFeSICnJEBblgo8rJ7WeLH19iDQ0N1tjYaGvWvuheeuSbi7AEG1X0Lpq3N7/jXng0YGCRrX3xJXvjjU3euQhLkFGl9c627dt3WMWosR3HxoyrstbWVuuT1y82F+HpMXuqCVXV7n1/0du1fOMIR/BRpWdkW+XocfbW25vtgQcXeecgLMFHNe+e+e6l03v27LWhpcO9cyLzFyw8L761ofN9Dx/f2iQkHlVJaVnsjeWzrpkTG++Vlunu+pY88aS7E+xuT+X7Q/bxrQ2d73v4+NYmocfsqaLN+5kzZ2zaldO94whHkFFVTay23bv3xDbl0RmqubnZLvvB5bG5CE+QUaVn5Nj+/QesdvlKKywa6qx+7nnbuXOXG/OtQTiCvfxFDz3r6ta5F3N//PEntnLVap6o9xA9Zk+FnoOoIEdUkCMqyBEV5IgKckQFOaKCHFFBjqggR1SQIyrIERXkiApyRAU5ooIcUUGOqCBHVJAjKsgRFeSICnJEBTmighxRQY6oIEdUkCMqyBEV5IgKckQFOaKCHFFBjqggR1SQIyrIERXkiApyRAU5ooIcUUGOqCBHVJDrEVE98uhiO3DgA8vrO8A7jrAEH9WVV8+006dPW+WY8d5xhCfoqPoXFFnD0aN27dwbvOMIU9BRvfDCGnvyqaXeMYQr2KhmzJxtLS0t7sWRTU1NVl+/1SZVT/XORViCjWrvvn0upPKKMe4yuPjxJe6FkgMGFnnnd36597n41obO9z18fGuTkHhUvre9Dysrd/95RHllx7z0jGw7euyYXXvd9bH1CE+QZ6qJk6ZYc3NLyvEtW+pt3j3zU44jLEFGld9/kLW2trr3KLcf653Zx71LedbsObG5CE+we6ra2hW24fWNNrR0uHvb+7KaWtuxY6el9c72zkc4go0qu0++PbZ4iZ04ccLd/a1+7nkrGFTsnYuwBBsVei6ighxRQY6oIEdUkCMqyBEV5IgKckQFOaKCHFFBjqggR1SQIyrIERXkiApyRAU5ooIcUUGOqCBHVJAjKsgRFeSICnJEBTmighxRQY6oIEdUkCMqyBEV5IgKckQFOaKCHFFBjqggR1SQIyrIERXkiApyRAU5ooJcsFH17TfQnnjiKWtoaLCTJ0/Z00uf5cXcPUSwUW3c+Bf785q1Vjyk1AYWDrYVK1e5n31zEZYgoxo+osK9RLLzC47aX9fW3ZtJEY4goxpfNdlFFV0C24/l5Re4qCZOvjg2F+EJMqqMrFw7cuSI20f1G1BohcUl9tzzL7jQBg+9yLsG4Qh2TxWdraLX254+fdp27drtNuzbtm/3zo3MX7DwvPjWhs73PXx8a5OQeFS+F3N3nXPFtKvd2LSrZqSMtfP9Ifv41obO9z18fGuTEOyZql1Obj87/OGH9uc/c+fXUwQf1aKHH3WvvI3eo+wbR3iCjmripCl29uxZ+8WNN3vHEaZgo0rPyLbdu/fY+tc2WK+0TO8chCn4yx96HqKCHFFBjqggR1SQIyrIERXkiApyRAU5ooIcUUGOqCBHVJAjKsgRFeSICnJEBTmighxRQY6oIEdUkCMqyBEV5IgKckQFOaKCHFFBjqggR1SQIyrIERXkiApyRAU5ooIcUUGOqCBHVJAjKsgRFeSICnJEBTmighxRQY6oIEdUkCMqyBEV5IgKckQFOaKCHFFBjqggR1SQIyrIERXkiApyRAU5ooIcUUGOqCBHVJAjKsgRFeSICnJEBTmighxRQY6oIEdUkCMqyBEV5IgKckQFOaKCHFFBjqggR1SQIyrIERXkiApyRAU5ooIcUUGOqCBHVJAjKsgRFeSICnJEBTmighxRQY6oIEdUkCMqyBEV5IgKckQFOaKCHFFBjqggR1SQIyrIERXkiApyRAU5ooIcUUGOqCBHVJAjKsgRFeSICnJEBTmighxRQY6oIEdUkCMqyBEV5IgKckQFOaKCHFFBjqggR1SQIyrIERXkiApyRAU5ooIcUUGOqCBHVJAjKsgRFeSICnJEBTmighxRQY6oIEdUkCMqyBEV5IgKckQFOaKCHFFBjqggR1SQIyrIJR7VL2682c6ePWsjK0bHjmdm59lDix62hoYG++STT622doX1G1AYm4MwJRrVHXf+ypqbW6ytrS0lqgcfWmTvvrfNSi8aYYVFQ+3V9a9ZXd262ByEKbGofnv3PXbixAmbdc0cb1R///tHNmv2nI6fJ06aYi0tLZaV0zc2D+FJLKorpl1toyrHubOQL6roshcF1/7zpOqpdubMGUvPyInNQ3gS31N1F9Uf7v2Tu/yVlJa5OeteXW/zFyyMzUGYgo0qL7/Atm3f7sYihw4ftglV1bE5nbXP+yq+taHzfQ8f39okXPCoojNN5y/e+ZIW8UWVnpFtO3fuslWrn7PC4hLrX1BkDz/ymJ061eR+7rwe4QnyTPW9y37ojnV+hNArLdMaGxtt7vU/7ziGMAUZ1dRLLnXHoktg+7HvpGfZZ599FrsjRJiCjCp68Hnw0CFbvmKVG4/OWO5B6NGjlt9/UGw9wpNYVO2XuK6iPVg0PnxEha1Z+6J7mh49z1r/2garHDM+5XMQnsTPVPjmISrIERXkiApyRAU5ooIcUUGOqCBHVJAjKsgRFeSICnJEBTmighxRQY6oIEdUkCMqyBEV5IgKckQFOaKCHFFBjqggR1SQIyrIERXkiApyRAU5ooIcUUGOqCBHVJAjKsgRFeSICnJEBTmighxRQY6oIEdUkCMqyBEV5IgKckQFOaKCHFFBjqggR1SQIyrIERXkiApyRAU5ooIcUUGOqCBHVJAjKsgRFeSICnJEBTmighxRQY6oIEdUkCMqyBEV5IgKckQFOaKCHFFBjqggR1SQIyrIERXkiApyRAU5ooJcYlH1zsi0+24Zah+tHWufvTrOVs4fbgX9sjvGc3Ky7PE7S+3oy2Pt5Gvjbc29ZVZUkBP7DIQpsagevq3E3ls6yoYN6WMD+2fbK/ePtPUPjewYr7l7mG1eUmEXDc61AV/GtvaPZbbpsfLYZyBMiUQVnaWaXp9gkyvzO45NKO9rbW9XWW6fLEtLz7Qdz4yyiovyOsbHlOW58T45mR3HEKZEooqiGT60T+xY1ZdR/e/mKisc4L/ERdG1vFllGV8G6RtHOILZqN9/S4kdfmFMyvH03hlWOSzX3v7yUvjgrSUp4whPEFGNG9nXmjdNsOumDUoZmzd3sDuD7a2ttJKi+Nmts/9ZUXlefGtD5/sePr61SbjgUUUhRFG0m31ZQWy8eGAfdwe4/HfDY8fb9UrLcHd9T9xVag0vje12TzXqy/3X+fCtDZ3ve/j41iYh0TNVfl627fvyf2FvfnlXF23efXPaRfuwz9+YYNOmDPCOIxyJRZWVlWXvLCm3vctHW15uVmws2rTvqamMbcqjM1S0Ub+sqn9sLsKTSFTRWafuvhHusjd4UOrdXrQ5P7BqtNXeM9zdDUZW/3647Vo2yo11nY+wJBLVjEsGuP1V9Kzq7FsTYnuuq6b+40wUPfSMwouetn/yyj+euPNEvWdIdE+FbyaighxRQY6oIEdUkCMqyBEV5IgKckQFOaKCHFFBjqggR1SQIyrIERXkiApyRAU5ooIcUUGOqCBHVJAjKsgRFeSICnJEBTmighxRQY6oIEdUkCMqyBEV5IgKckQFOaKCHFFBjqggR1SQIyrIERXkiApyRAU5ooIcUUGOqCBHVJAjKsgRFeSICnJEBTmighxRQY6oIEdUkCMqyBEV5IgKckQFOaKCHFFBjqggl1hUvTP72J/ue8A++uiIHT9+3FauWm0Fg4rdWPXF37W2tjavhxY9nPJZCEtiUS1a9Ii9+942G1ZWbgMLB1td3Tp7df1r3rmRfgMK7bPPPrNZs+d4xxGORKKKzlKnTjXZ5CmXdBybUFVtra2tltu3f2xuu3n3zLeDhw7Zd9KzvOMIRyJRpfXOtuEjKmLHqiZWu8tbYdHQ2PFIRlauHT12zG697ZcpYwhPMBv1++5/0A4dPuwdu+E/bnT7ruw++d5xhCWIqMZNmGRffPGFXTv3hpSxXmmZtnffPvvDvX9MGets/oKF58W3NnS+7+HjW5uECx5VSWlZ7O5t1jXxjXbR4FJ3B7h8xarY8XbTrpxun3/+uQ0qHOIdb+f7Q/bxrQ2d73v4+NYmIdEzVX7/Qe4stGnTm27z7puzceNf7Jlnl3nHEKbEosrK6WubN79je/bus7z8Au+cseMnujvCilFjveMIUyJRRXd/0XOp6LJXPKTUOycSXRLXrXvVO4ZwJRLV9Bmz3P4qelbV0tIS23NdNX2mmxPttaLxiy+5NGU9wpbongrfTEQFOaKCHFFBjqggR1SQIyrIERXkiApyRAU5ooIcUUGOqCBHVJAjKsgRFeSICnJEBTmighxRQY6oIEdUkCMqyBEV5IgKckQFOaKCHFFBjqggR1SQIyrIERXkiApyRAU5ooIcUUGOqCBHVJAjKsgRFeSICnJEBTmighxRQY6oIEdUkCMqyBEV5IgKckQFOaKCHFFBjqggR1SQIyrIERXkiApyRAU5ooIcUUGOqCBHVJAjKsgRFeSICnJEBTmighxRQY6oIEdUkCMqyBEV5IgKckQFOaKCHFFBjqggR1SQIyrIERXkiApyRAU5ooIcUUGOqCBHVJAjKsgRFeSICnJEBTmighxRQY6oIEdUkCMqyBEV5IgKckQFOaKCHFFBjqggR1SQIyrIERXkiApyRAU5ooIcUUGOqCBHVJAjKsgRFeSICnJEBTmighxRQY6oIEdUkCMqyBEV5IgKckQFOaKCHFFBjqggR1SQIyrIERXkiApyRAU5ooIcUUGOqCBHVJAjKsgRFeSICnJEBTmighxRQY6oIEdUkCMqyBEV5IgKckQFOaKCHFFBjqggR1SQSyyqnNx+tvjxJdbQ0GCNjY22Zu2LVlhc4p37yKOL7cCBDyyv7wDvOMKSWFQ1Ncvt7c3v2EXDy23AwCJb++JL9sYbm1LmXXn1TDt9+rRVjhmfMoYwJRJVWu9s2759h1WMGttxbMy4KmttbbU+ef06jvUvKLKGo0ft2rk3dBxD+ILZU02oqrbm5hbLyMrtOPbCC2vsyaeWxuYhfIlHlZ6RbZWjx9lbb2+2Bx5c1HF8xszZ1tLSYjt37rKmpiarr99qk6qnxtYiTIlHNe+e+dbW1mZ79uy1oaXDO47v3bfPhVReMcZdBqNN/fHjx93+q/P6dtFnnA/f2tD5voePb20SLnhUJaVlsS8+65o5sfFeaZnurm/JE0+6O8FoTzWsrNzNHVFe2TEvOqMdPXbMrr3u+th6hCeYPVW0eT9z5oxNu3K6TZw0xe2vus7ZsqXendm6HkdYEomqamK17d69J7Ypj85Qzc3NdtkPLrf8/oPcnWD0uKF9vHdmH/v4409s1uz4mQ7hSSSq9Iwc27//gNUuX2mFRUOd1c897zbl0Vg0p7Z2hW14faPbZ0Xjy2pqbceOne6M1vXzEJbELn/RWaiubp3bfEdnoJWrVseeqGf3ybfHFi+xEydOuLu/KLqCQcWxz0CYgtlT4ZuDqCBHVJAjKsgRFeSICnJEBTmighxRQY6oIEdUkCMqyBEV5IgKckQFOaKCHFFBjqggR1SQIyrIERXkiApyRAU5ooIcUUGOqCBHVJAjKsgRFeSICnJEBTmighxRQY6oIEdUkCMqyBEV5IgKckQFOaKCHFFBjqggR1SQIyrIERXkiApyRAU5ooIcUUGOqCBHVJAjKsgRFeSICnJEBTmighxRQY6oIEdUkCMqyBEV5IgKckQFOaKCHFFBjqggR1SQIyrIERXkiApyRAU5ooIcUUGOqCBHVJAjKsgRFeSICnJEBTmighxRQY6oIEdUkCMqyBEV5IgKckQFOaKCHFFBjqggR1SQIyrIERXkiApyRAU5ooIcUUGOqCBHVJAjKsgRFeSICnJEBTmighxRQY6oIEdUkCMqyBEV5IgKckQFOaKCHFFBjqggR1SQIyrIERXkiApyRAU5ooIcUUGOqCBHVJAjKsgRFeSICnJEBTmighxRQY6oIEdUkCMqyBEV5IgKckQFOaKCHFFBjqggR1SQIyrIERXkiApyRAU5ooIcUUGOqCBHVJAjKsgRFeSCiOqq6TOtra3NqiZWdxzrlZZpp041uePt6uu3xtYhTIlHNbBwsB079nFKVENKhtmnn34am4ueIfGo6urW2bbt2+3IkSOxqC6/4irbsqU+Nhc9Q6JR3XjTLXby5CkbVlaeEtXtd9xlNTXLY/PRMyQWVRRSU1OT/eSn17mfu0b11NPPWGNjo4uu4ehRe3ZZjeX3H9QxjnAlElV6RrZt3fquC6X9WNeoioeU2viqyZaZnWflFWPc/JfrXukY72r+goXnxbc2dL7v4eNbm4QLHlVJaVnsDm7WNXPcH8D77++3nNx+HfO6RtXVlKnfc+vz8gu8413/gLvjWxs63/fw8a1NQiJnqg2vb4yF1lm0cfetie4Go/GRFaO94whHohv1zr7qTDV9xiz33Cq6HPrGEY4go4rCqV2+0j1WiC6Rk6qn2sGDB+3Ou36dsg7hCTKq9Iwc+81v59mBAx9Yc3OzHTp82G665Vb3lL3rOoQnmKjwzUFUkCMqyBEV5IgKckQFOaKCHFFBjqggR1SQIyrIERXkiApyRAU5ooIcUUGOqCBHVJAjKsgRFeSICnJEBTmighxRQY6oIEdUkCMqyBEV5IgKckQFOaKCHFFBjqggR1SQIyrIERXkiApyRAU5ooIcUUGOqCBHVJAjKsgRFeSICnJEBTmighxRQY6oIEdUkCMqyBEV5IgKckQFOaKCHFFBjqggR1SQIyrIERXkiApyRAU5ooIcUUGOqCBHVJAjKsgRFeSICnJEBTmighxRQY6oIEdUkCMqyBEV5IgKckQFOaKCHFFBjqggR1SQIyrIERXkiApyRAU5ooIcUUGOqCBHVJAjKsgRFeSICnJEBTmighxRQY6oIEdUkCMqyBEV5IgKckQFOaKCHFFBjqggR1SQIyrIERXkiApyRAU5ooIcUUGOqCBHVJAjKsgRFeSICnJEBTmighxRQY6oIEdUkCMqyBEV5IgKckQFOaKCHFFBjqggR1SQIyrIERXkiApyRAU5ooIcUUGOqCBHVJAjKsgRFeSICnJEBTmighxRQY6oIEdUkCMqyBEV5IgKckQFucSi6pWWaadONVlbW1uH+vqt3rlXTZ/pxqsmVnvHEZbEohpSMsw+/fRT71hnAwsH27FjHxNVD5JYVJdfcZVt2VLvHeusrm6dbdu+3Y4cOUJUPURiUd1+x11WU7PcO9buxptusZMnT9mwsnKi6kESi+qpp5+xxsZGF03D0aP27LIay+8/qGM8Cqmpqcl+8tPr3M9E1XMkFlXxkFIbXzXZMrPzrLxijG3d+q69XPeKG0vPyHY/R6G1z/+qqDpv+M/FtzZ0vu/h41ubhAseVUlpWeyLz7pmjnfelKnfc+N5+QU2f8FCe//9/ZaT269jnDNVz5HYmaqr6G4wimpkxWjb8PrGWIidRRt333qEI5iops+Y5Z5bRZdD3zhnqp4jkaiicGqXr3SPFaJL3KTqqXbw4EG7865fe+dHiKrnSCSq9Iwc+81v59mBAx9Yc3OzHTp82G665Vb3lN03P0JUPUcwlz98cxAV5IgKckQFOaKCHFFBjqggR1SQIyrIERXkiApyRAU5ooIcUUGOqCBHVJAjKsgRFeSICnJEBTmighxRQY6oIEdUkCMqyBEV5IgKckQFOaKCHFFBjqggR1SQIyrIERXkiApyRAU5ooIcUUGOqCBHVJAjKsgRFeSICnJEBTmighxRQY6oIEdUkCMqyBEV5IgKckQFOaKCHFFBjqggR1SQIyrIERXkiApyRAU5ooIcUUGOqCBHVJAjKsgRFeSICnJEBTmighxRQY6oIEdUkCMqyBEV5IgKckQFOaKCHFFBjqggR1SQIyrIERXkiApyRAU5ooIcUUGOqCBHVJAjKsgRFeSICnJEBTmighxR4Sv1Ssu0S7//Q1u1arV3vCuiQrfSemfbjB/PtrpX1tn+/fsd37yuiAopsnL62nVzb7BNm97siImo8P+S33+g3XrbL23r1q0pMbXzreuKqGCFxUPt7nm/s507d3pD6sy3viui+hYrG1Fh993/oO3bt88bkI/vc7oiqm+hCVWT7cknn7b333/fG865+D6vK6L6FiKqhOzff+CC8/3erxOXP1wwbNRxwfBIARcMDz9xwfC3aXDB8DeUkTiighxRQY6oIEdUkCMqyBEV5IgKckQFOaKCHFFBjqggR1SQ+9ZF1dLSYm1tbTasrNw73m7s+IluXmNjo3e8s01vvuXm/uzaubHj7b/rXNa/tiG25t/m/NT9c0zR7/3888/tr389aIsWPWKFxSWxeSEjqm4kEdWTTy31zolEfx2XfPey2OeHiqi6oYzqq35X5Ac/usLNjdb8+jd3W/GQUsvuk2+jx06w+x94yP11TKqe6l0bGqLqxtcdVXSJi+Y+vuQJ73hPQlTd+LqjemjRw27uHXf+yjvekxBVN77uqKL9Umtrq3300RGbUFXtndNTEFU3vu6oIrff+d/W3Nzs4tq48S92483/aYMKh3jnhoyouqGMqjs1Nctj8yNlI0e5jfnBgwfdnOgz6urWWeWY8SlzQ0VU3Ugqqs4qRo11e63m5hb3zIq7v0Cdb1TDR1S4edF/odH//803p93Onbvc3BkzZ8eOn+/v+ipz/v1n7nO2bKn3joeGqLqRmZ1nZ86ccXMv/f6PvHMi/QYUun1QNG9U5bjYmCqq6JlV9DnHjn3sHQ8NUZ3DmrUvurnRmSgjK9c7p/0puO/f4vLP/K6Jky+2wUMv8o7Nvf7n7nO2bd/uHQ8NUZ1DtKc5ffq0m7933z67YtrVltu3vzuLTZw0xTa8vtGNRabPmJWy/nx/V2HRUGtqanLmL1joNutRxEWDS+3mW26zkydPuc/55e13eteH5lsbVXei/2I7z49CijbrvrmRaM9123/dHlvT7p8J+J7fLTjnX9tLL9dZesa593ahIKouukYVic4kf7rvAduzZ68bj/Za0T89EP3b6MorxqTMb/fPRBUZN2GSLauptQ8//Jt98cUXLuY333rbXf6if5+Bb02IvnVR4cIjKsgRFeSICnJEBTmighxRQY6oIEdUkCMqyBEVxDLs/wDBEhfXizOaAgAAAABJRU5ErkJggg==;imageBorder=default;aspect=fixed;" vertex="1" parent="1">
          <mxGeometry x="400" y="40" width="135" height="1000" as="geometry" />
        </mxCell>
        <mxCell id="b--Z6cr3aXD35UnNznCl-4" value="" style="rounded=0;whiteSpace=wrap;html=1;gradientColor=light-dark(#000000,#006633);fillColor=light-dark(#FFFFFF,#990000);strokeColor=none;opacity=25;" vertex="1" parent="1">
          <mxGeometry x="400" y="40" width="135" height="1000" as="geometry" />
        </mxCell>
        <mxCell id="b--Z6cr3aXD35UnNznCl-5" value="" style="shape=image;verticalLabelPosition=bottom;labelBackgroundColor=default;verticalAlign=top;imageAspect=0;image=data:image/png,iVBORw0KGgoAAAANSUhEUgAAAJUAAARqCAYAAABBKTeQAAAAAXNSR0IArs4c6QAAAARnQU1BAACxjwv8YQUAAAAJcEhZcwAAEnQAABJ0Ad5mH3gAAAASdEVYdFNvZnR3YXJlAEdyZWVuc2hvdF5VCAUAABzfSURBVHhe7d35f1fVncfx+TuGJmQjIUAgCZAIgYSwBghiq10UFSg4TFtFp3UZnbpMF7FQauuGC+KCkrCpBTUiIhUVCcoOI1jAVgIqEggPNCGZHz7jPX0kj9x8T5DO4433RF8/PB+P5p5zvvFLX7333Kv1/su/fifDACWighxRQY6oIEdUkCMqyBEV5IgKckQFOaKCXLBRZWTl2qOPPW7Hjx+3xpMnbVlNreXlF3jnIizBRvXU089Yff1WKxs5yoaUDLN1r653fHMRliCjKh5SamfPnrXKMeM7jhUWl1hLS4tNnnJJbC7CE2RUc6//uf3tb39POf7uu+/Z/AULU44jLEFGde8f77NNm95MOb5y1Wqn63GEJcioHnl0sXf/9PTSZ+2ll+tSjkfa2trOi29t6Hzfw8e3NgmcqSAXZFTX3/CLbvdUC37/h5TjCEuQUXV399fc3GLVF383NhfhCTKqyNJnnrUtW+rtouHlLrJ161619a9t8M5FWIKNKnqi/tjiJR1P1GtqlvNEvYcINir0XEQFOaKCHFFBjqggR1SQIyrIERXkiApyRAU5ooIcUUGOqCBHVJAjKsgRFeSICnJEBTmighxRQY6oIEdUkCMqyBEV5IgKckQFOaKCHFFBjqggR1SQIyrIERXkiApyRAU5ooIcUUGOqCBHVJAjKsgRFeSICnJEBblgo8rJ7WeLH19iDQ0N1tjYaGvWvuheeuSbi7AEG1X0Lpq3N7/jXng0YGCRrX3xJXvjjU3euQhLkFGl9c627dt3WMWosR3HxoyrstbWVuuT1y82F+HpMXuqCVXV7n1/0du1fOMIR/BRpWdkW+XocfbW25vtgQcXeecgLMFHNe+e+e6l03v27LWhpcO9cyLzFyw8L761ofN9Dx/f2iQkHlVJaVnsjeWzrpkTG++Vlunu+pY88aS7E+xuT+X7Q/bxrQ2d73v4+NYmocfsqaLN+5kzZ2zaldO94whHkFFVTay23bv3xDbl0RmqubnZLvvB5bG5CE+QUaVn5Nj+/QesdvlKKywa6qx+7nnbuXOXG/OtQTiCvfxFDz3r6ta5F3N//PEntnLVap6o9xA9Zk+FnoOoIEdUkCMqyBEV5IgKckQFOaKCHFFBjqggR1SQIyrIERXkiApyRAU5ooIcUUGOqCBHVJAjKsgRFeSICnJEBTmighxRQY6oIEdUkCMqyBEV5IgKckQFOaKCHFFBjqggR1SQIyrIERXkiApyRAU5ooIcUUGOqCBHVJDrEVE98uhiO3DgA8vrO8A7jrAEH9WVV8+006dPW+WY8d5xhCfoqPoXFFnD0aN27dwbvOMIU9BRvfDCGnvyqaXeMYQr2KhmzJxtLS0t7sWRTU1NVl+/1SZVT/XORViCjWrvvn0upPKKMe4yuPjxJe6FkgMGFnnnd36597n41obO9z18fGuTkHhUvre9Dysrd/95RHllx7z0jGw7euyYXXvd9bH1CE+QZ6qJk6ZYc3NLyvEtW+pt3j3zU44jLEFGld9/kLW2trr3KLcf653Zx71LedbsObG5CE+we6ra2hW24fWNNrR0uHvb+7KaWtuxY6el9c72zkc4go0qu0++PbZ4iZ04ccLd/a1+7nkrGFTsnYuwBBsVei6ighxRQY6oIEdUkCMqyBEV5IgKckQFOaKCHFFBjqggR1SQIyrIERXkiApyRAU5ooIcUUGOqCBHVJAjKsgRFeSICnJEBTmighxRQY6oIEdUkCMqyBEV5IgKckQFOaKCHFFBjqggR1SQIyrIERXkiApyRAU5ooJcsFH17TfQnnjiKWtoaLCTJ0/Z00uf5cXcPUSwUW3c+Bf785q1Vjyk1AYWDrYVK1e5n31zEZYgoxo+osK9RLLzC47aX9fW3ZtJEY4goxpfNdlFFV0C24/l5Re4qCZOvjg2F+EJMqqMrFw7cuSI20f1G1BohcUl9tzzL7jQBg+9yLsG4Qh2TxWdraLX254+fdp27drtNuzbtm/3zo3MX7DwvPjWhs73PXx8a5OQeFS+F3N3nXPFtKvd2LSrZqSMtfP9Ifv41obO9z18fGuTEOyZql1Obj87/OGH9uc/c+fXUwQf1aKHH3WvvI3eo+wbR3iCjmripCl29uxZ+8WNN3vHEaZgo0rPyLbdu/fY+tc2WK+0TO8chCn4yx96HqKCHFFBjqggR1SQIyrIERXkiApyRAU5ooIcUUGOqCBHVJAjKsgRFeSICnJEBTmighxRQY6oIEdUkCMqyBEV5IgKckQFOaKCHFFBjqggR1SQIyrIERXkiApyRAU5ooIcUUGOqCBHVJAjKsgRFeSICnJEBTmighxRQY6oIEdUkCMqyBEV5IgKckQFOaKCHFFBjqggR1SQIyrIERXkiApyRAU5ooIcUUGOqCBHVJAjKsgRFeSICnJEBTmighxRQY6oIEdUkCMqyBEV5IgKckQFOaKCHFFBjqggR1SQIyrIERXkiApyRAU5ooIcUUGOqCBHVJAjKsgRFeSICnJEBTmighxRQY6oIEdUkCMqyBEV5IgKckQFOaKCHFFBjqggR1SQIyrIERXkiApyRAU5ooIcUUGOqCBHVJAjKsgRFeSICnJEBTmighxRQY6oIEdUkCMqyBEV5IgKckQFOaKCHFFBjqggR1SQIyrIERXkiApyRAU5ooIcUUGOqCBHVJAjKsgRFeSICnJEBTmighxRQY6oIEdUkCMqyBEV5IgKckQFOaKCHFFBjqggR1SQIyrIJR7VL2682c6ePWsjK0bHjmdm59lDix62hoYG++STT622doX1G1AYm4MwJRrVHXf+ypqbW6ytrS0lqgcfWmTvvrfNSi8aYYVFQ+3V9a9ZXd262ByEKbGofnv3PXbixAmbdc0cb1R///tHNmv2nI6fJ06aYi0tLZaV0zc2D+FJLKorpl1toyrHubOQL6roshcF1/7zpOqpdubMGUvPyInNQ3gS31N1F9Uf7v2Tu/yVlJa5OeteXW/zFyyMzUGYgo0qL7/Atm3f7sYihw4ftglV1bE5nbXP+yq+taHzfQ8f39okXPCoojNN5y/e+ZIW8UWVnpFtO3fuslWrn7PC4hLrX1BkDz/ymJ061eR+7rwe4QnyTPW9y37ojnV+hNArLdMaGxtt7vU/7ziGMAUZ1dRLLnXHoktg+7HvpGfZZ599FrsjRJiCjCp68Hnw0CFbvmKVG4/OWO5B6NGjlt9/UGw9wpNYVO2XuK6iPVg0PnxEha1Z+6J7mh49z1r/2garHDM+5XMQnsTPVPjmISrIERXkiApyRAU5ooIcUUGOqCBHVJAjKsgRFeSICnJEBTmighxRQY6oIEdUkCMqyBEV5IgKckQFOaKCHFFBjqggR1SQIyrIERXkiApyRAU5ooIcUUGOqCBHVJAjKsgRFeSICnJEBTmighxRQY6oIEdUkCMqyBEV5IgKckQFOaKCHFFBjqggR1SQIyrIERXkiApyRAU5ooIcUUGOqCBHVJAjKsgRFeSICnJEBTmighxRQY6oIEdUkCMqyBEV5IgKckQFOaKCHFFBjqggR1SQIyrIERXkiApyRAU5ooJcYlH1zsi0+24Zah+tHWufvTrOVs4fbgX9sjvGc3Ky7PE7S+3oy2Pt5Gvjbc29ZVZUkBP7DIQpsagevq3E3ls6yoYN6WMD+2fbK/ePtPUPjewYr7l7mG1eUmEXDc61AV/GtvaPZbbpsfLYZyBMiUQVnaWaXp9gkyvzO45NKO9rbW9XWW6fLEtLz7Qdz4yyiovyOsbHlOW58T45mR3HEKZEooqiGT60T+xY1ZdR/e/mKisc4L/ERdG1vFllGV8G6RtHOILZqN9/S4kdfmFMyvH03hlWOSzX3v7yUvjgrSUp4whPEFGNG9nXmjdNsOumDUoZmzd3sDuD7a2ttJKi+Nmts/9ZUXlefGtD5/sePr61SbjgUUUhRFG0m31ZQWy8eGAfdwe4/HfDY8fb9UrLcHd9T9xVag0vje12TzXqy/3X+fCtDZ3ve/j41iYh0TNVfl627fvyf2FvfnlXF23efXPaRfuwz9+YYNOmDPCOIxyJRZWVlWXvLCm3vctHW15uVmws2rTvqamMbcqjM1S0Ub+sqn9sLsKTSFTRWafuvhHusjd4UOrdXrQ5P7BqtNXeM9zdDUZW/3647Vo2yo11nY+wJBLVjEsGuP1V9Kzq7FsTYnuuq6b+40wUPfSMwouetn/yyj+euPNEvWdIdE+FbyaighxRQY6oIEdUkCMqyBEV5IgKckQFOaKCHFFBjqggR1SQIyrIERXkiApyRAU5ooIcUUGOqCBHVJAjKsgRFeSICnJEBTmighxRQY6oIEdUkCMqyBEV5IgKckQFOaKCHFFBjqggR1SQIyrIERXkiApyRAU5ooIcUUGOqCBHVJAjKsgRFeSICnJEBTmighxRQY6oIEdUkCMqyBEV5IgKckQFOaKCHFFBjqggl1hUvTP72J/ue8A++uiIHT9+3FauWm0Fg4rdWPXF37W2tjavhxY9nPJZCEtiUS1a9Ii9+942G1ZWbgMLB1td3Tp7df1r3rmRfgMK7bPPPrNZs+d4xxGORKKKzlKnTjXZ5CmXdBybUFVtra2tltu3f2xuu3n3zLeDhw7Zd9KzvOMIRyJRpfXOtuEjKmLHqiZWu8tbYdHQ2PFIRlauHT12zG697ZcpYwhPMBv1++5/0A4dPuwdu+E/bnT7ruw++d5xhCWIqMZNmGRffPGFXTv3hpSxXmmZtnffPvvDvX9MGets/oKF58W3NnS+7+HjW5uECx5VSWlZ7O5t1jXxjXbR4FJ3B7h8xarY8XbTrpxun3/+uQ0qHOIdb+f7Q/bxrQ2d73v4+NYmIdEzVX7/Qe4stGnTm27z7puzceNf7Jlnl3nHEKbEosrK6WubN79je/bus7z8Au+cseMnujvCilFjveMIUyJRRXd/0XOp6LJXPKTUOycSXRLXrXvVO4ZwJRLV9Bmz3P4qelbV0tIS23NdNX2mmxPttaLxiy+5NGU9wpbongrfTEQFOaKCHFFBjqggR1SQIyrIERXkiApyRAU5ooIcUUGOqCBHVJAjKsgRFeSICnJEBTmighxRQY6oIEdUkCMqyBEV5IgKckQFOaKCHFFBjqggR1SQIyrIERXkiApyRAU5ooIcUUGOqCBHVJAjKsgRFeSICnJEBTmighxRQY6oIEdUkCMqyBEV5IgKckQFOaKCHFFBjqggR1SQIyrIERXkiApyRAU5ooIcUUGOqCBHVJAjKsgRFeSICnJEBTmighxRQY6oIEdUkCMqyBEV5IgKckQFOaKCHFFBjqggR1SQIyrIERXkiApyRAU5ooIcUUGOqCBHVJAjKsgRFeSICnJEBTmighxRQY6oIEdUkCMqyBEV5IgKckQFOaKCHFFBjqggR1SQIyrIERXkiApyRAU5ooIcUUGOqCBHVJAjKsgRFeSICnJEBTmighxRQY6oIEdUkCMqyBEV5IgKckQFOaKCHFFBjqggR1SQIyrIERXkiApyRAU5ooIcUUGOqCBHVJAjKsgRFeSICnJEBTmighxRQY6oIEdUkCMqyBEV5IgKckQFOaKCHFFBjqggR1SQSyyqnNx+tvjxJdbQ0GCNjY22Zu2LVlhc4p37yKOL7cCBDyyv7wDvOMKSWFQ1Ncvt7c3v2EXDy23AwCJb++JL9sYbm1LmXXn1TDt9+rRVjhmfMoYwJRJVWu9s2759h1WMGttxbMy4KmttbbU+ef06jvUvKLKGo0ft2rk3dBxD+ILZU02oqrbm5hbLyMrtOPbCC2vsyaeWxuYhfIlHlZ6RbZWjx9lbb2+2Bx5c1HF8xszZ1tLSYjt37rKmpiarr99qk6qnxtYiTIlHNe+e+dbW1mZ79uy1oaXDO47v3bfPhVReMcZdBqNN/fHjx93+q/P6dtFnnA/f2tD5voePb20SLnhUJaVlsS8+65o5sfFeaZnurm/JE0+6O8FoTzWsrNzNHVFe2TEvOqMdPXbMrr3u+th6hCeYPVW0eT9z5oxNu3K6TZw0xe2vus7ZsqXendm6HkdYEomqamK17d69J7Ypj85Qzc3NdtkPLrf8/oPcnWD0uKF9vHdmH/v4409s1uz4mQ7hSSSq9Iwc27//gNUuX2mFRUOd1c897zbl0Vg0p7Z2hW14faPbZ0Xjy2pqbceOne6M1vXzEJbELn/RWaiubp3bfEdnoJWrVseeqGf3ybfHFi+xEydOuLu/KLqCQcWxz0CYgtlT4ZuDqCBHVJAjKsgRFeSICnJEBTmighxRQY6oIEdUkCMqyBEV5IgKckQFOaKCHFFBjqggR1SQIyrIERXkiApyRAU5ooIcUUGOqCBHVJAjKsgRFeSICnJEBTmighxRQY6oIEdUkCMqyBEV5IgKckQFOaKCHFFBjqggR1SQIyrIERXkiApyRAU5ooIcUUGOqCBHVJAjKsgRFeSICnJEBTmighxRQY6oIEdUkCMqyBEV5IgKckQFOaKCHFFBjqggR1SQIyrIERXkiApyRAU5ooIcUUGOqCBHVJAjKsgRFeSICnJEBTmighxRQY6oIEdUkCMqyBEV5IgKckQFOaKCHFFBjqggR1SQIyrIERXkiApyRAU5ooIcUUGOqCBHVJAjKsgRFeSICnJEBTmighxRQY6oIEdUkCMqyBEV5IgKckQFOaKCHFFBjqggR1SQIyrIERXkiApyRAU5ooIcUUGOqCBHVJAjKsgRFeSICnJEBTmighxRQY6oIEdUkCMqyBEV5IgKckQFOaKCHFFBjqggR1SQIyrIERXkiApyRAU5ooIcUUGOqCBHVJAjKsgRFeSCiOqq6TOtra3NqiZWdxzrlZZpp041uePt6uu3xtYhTIlHNbBwsB079nFKVENKhtmnn34am4ueIfGo6urW2bbt2+3IkSOxqC6/4irbsqU+Nhc9Q6JR3XjTLXby5CkbVlaeEtXtd9xlNTXLY/PRMyQWVRRSU1OT/eSn17mfu0b11NPPWGNjo4uu4ehRe3ZZjeX3H9QxjnAlElV6RrZt3fquC6X9WNeoioeU2viqyZaZnWflFWPc/JfrXukY72r+goXnxbc2dL7v4eNbm4QLHlVJaVnsDm7WNXPcH8D77++3nNx+HfO6RtXVlKnfc+vz8gu8413/gLvjWxs63/fw8a1NQiJnqg2vb4yF1lm0cfetie4Go/GRFaO94whHohv1zr7qTDV9xiz33Cq6HPrGEY4go4rCqV2+0j1WiC6Rk6qn2sGDB+3Ou36dsg7hCTKq9Iwc+81v59mBAx9Yc3OzHTp82G665Vb3lL3rOoQnmKjwzUFUkCMqyBEV5IgKckQFOaKCHFFBjqggR1SQIyrIERXkiApyRAU5ooIcUUGOqCBHVJAjKsgRFeSICnJEBTmighxRQY6oIEdUkCMqyBEV5IgKckQFOaKCHFFBjqggR1SQIyrIERXkiApyRAU5ooIcUUGOqCBHVJAjKsgRFeSICnJEBTmighxRQY6oIEdUkCMqyBEV5IgKckQFOaKCHFFBjqggR1SQIyrIERXkiApyRAU5ooIcUUGOqCBHVJAjKsgRFeSICnJEBTmighxRQY6oIEdUkCMqyBEV5IgKckQFOaKCHFFBjqggR1SQIyrIERXkiApyRAU5ooIcUUGOqCBHVJAjKsgRFeSICnJEBTmighxRQY6oIEdUkCMqyBEV5IgKckQFOaKCHFFBjqggR1SQIyrIERXkiApyRAU5ooIcUUGOqCBHVJAjKsgRFeSICnJEBTmighxRQY6oIEdUkCMqyBEV5IgKckQFOaKCHFFBjqggR1SQIyrIERXkiApyRAU5ooIcUUGOqCBHVJAjKsgRFeSICnJEBTmighxRQY6oIEdUkCMqyBEV5IgKckQFucSi6pWWaadONVlbW1uH+vqt3rlXTZ/pxqsmVnvHEZbEohpSMsw+/fRT71hnAwsH27FjHxNVD5JYVJdfcZVt2VLvHeusrm6dbdu+3Y4cOUJUPURiUd1+x11WU7PcO9buxptusZMnT9mwsnKi6kESi+qpp5+xxsZGF03D0aP27LIay+8/qGM8Cqmpqcl+8tPr3M9E1XMkFlXxkFIbXzXZMrPzrLxijG3d+q69XPeKG0vPyHY/R6G1z/+qqDpv+M/FtzZ0vu/h41ubhAseVUlpWeyLz7pmjnfelKnfc+N5+QU2f8FCe//9/ZaT269jnDNVz5HYmaqr6G4wimpkxWjb8PrGWIidRRt333qEI5iops+Y5Z5bRZdD3zhnqp4jkaiicGqXr3SPFaJL3KTqqXbw4EG7865fe+dHiKrnSCSq9Iwc+81v59mBAx9Yc3OzHTp82G665Vb3lN03P0JUPUcwlz98cxAV5IgKckQFOaKCHFFBjqggR1SQIyrIERXkiApyRAU5ooIcUUGOqCBHVJAjKsgRFeSICnJEBTmighxRQY6oIEdUkCMqyBEV5IgKckQFOaKCHFFBjqggR1SQIyrIERXkiApyRAU5ooIcUUGOqCBHVJAjKsgRFeSICnJEBTmighxRQY6oIEdUkCMqyBEV5IgKckQFOaKCHFFBjqggR1SQIyrIERXkiApyRAU5ooIcUUGOqCBHVJAjKsgRFeSICnJEBTmighxRQY6oIEdUkCMqyBEV5IgKckQFOaKCHFFBjqggR1SQIyrIERXkiApyRAU5ooIcUUGOqCBHVJAjKsgRFeSICnJEBTmighxR4Sv1Ssu0S7//Q1u1arV3vCuiQrfSemfbjB/PtrpX1tn+/fsd37yuiAopsnL62nVzb7BNm97siImo8P+S33+g3XrbL23r1q0pMbXzreuKqGCFxUPt7nm/s507d3pD6sy3viui+hYrG1Fh993/oO3bt88bkI/vc7oiqm+hCVWT7cknn7b333/fG865+D6vK6L6FiKqhOzff+CC8/3erxOXP1wwbNRxwfBIARcMDz9xwfC3aXDB8DeUkTiighxRQY6oIEdUkCMqyBEV5IgKckQFOaKCHFFBjqggR1SQ+9ZF1dLSYm1tbTasrNw73m7s+IluXmNjo3e8s01vvuXm/uzaubHj7b/rXNa/tiG25t/m/NT9c0zR7/3888/tr389aIsWPWKFxSWxeSEjqm4kEdWTTy31zolEfx2XfPey2OeHiqi6oYzqq35X5Ac/usLNjdb8+jd3W/GQUsvuk2+jx06w+x94yP11TKqe6l0bGqLqxtcdVXSJi+Y+vuQJ73hPQlTd+LqjemjRw27uHXf+yjvekxBVN77uqKL9Umtrq3300RGbUFXtndNTEFU3vu6oIrff+d/W3Nzs4tq48S92483/aYMKh3jnhoyouqGMqjs1Nctj8yNlI0e5jfnBgwfdnOgz6urWWeWY8SlzQ0VU3Ugqqs4qRo11e63m5hb3zIq7v0Cdb1TDR1S4edF/odH//803p93Onbvc3BkzZ8eOn+/v+ipz/v1n7nO2bKn3joeGqLqRmZ1nZ86ccXMv/f6PvHMi/QYUun1QNG9U5bjYmCqq6JlV9DnHjn3sHQ8NUZ3DmrUvurnRmSgjK9c7p/0puO/f4vLP/K6Jky+2wUMv8o7Nvf7n7nO2bd/uHQ8NUZ1DtKc5ffq0m7933z67YtrVltu3vzuLTZw0xTa8vtGNRabPmJWy/nx/V2HRUGtqanLmL1joNutRxEWDS+3mW26zkydPuc/55e13eteH5lsbVXei/2I7z49CijbrvrmRaM9123/dHlvT7p8J+J7fLTjnX9tLL9dZesa593ahIKouukYVic4kf7rvAduzZ68bj/Za0T89EP3b6MorxqTMb/fPRBUZN2GSLauptQ8//Jt98cUXLuY333rbXf6if5+Bb02IvnVR4cIjKsgRFeSICnJEBTmighxRQY6oIEdUkCMqyBEVxDLs/wDBEhfXizOaAgAAAABJRU5ErkJggg==;imageBorder=default;aspect=fixed;" vertex="1" parent="1">
          <mxGeometry x="720" y="40" width="135" height="1000" as="geometry" />
        </mxCell>
        <mxCell id="b--Z6cr3aXD35UnNznCl-6" value="" style="rounded=0;whiteSpace=wrap;html=1;gradientColor=light-dark(#000000,#006633);fillColor=light-dark(#FFFFFF,#990000);strokeColor=none;opacity=25;" vertex="1" parent="1">
          <mxGeometry x="720" y="40" width="135" height="1000" as="geometry" />
        </mxCell>
        <mxCell id="b--Z6cr3aXD35UnNznCl-7" value="" style="shape=image;verticalLabelPosition=bottom;labelBackgroundColor=default;verticalAlign=top;imageAspect=0;image=data:image/png,iVBORw0KGgoAAAANSUhEUgAAAJUAAARqCAYAAABBKTeQAAAAAXNSR0IArs4c6QAAAARnQU1BAACxjwv8YQUAAAAJcEhZcwAAEnQAABJ0Ad5mH3gAAAASdEVYdFNvZnR3YXJlAEdyZWVuc2hvdF5VCAUAABzfSURBVHhe7d35f1fVncfx+TuGJmQjIUAgCZAIgYSwBghiq10UFSg4TFtFp3UZnbpMF7FQauuGC+KCkrCpBTUiIhUVCcoOI1jAVgIqEggPNCGZHz7jPX0kj9x8T5DO4433RF8/PB+P5p5zvvFLX7333Kv1/su/fifDACWighxRQY6oIEdUkCMqyBEV5IgKckQFOaKCXLBRZWTl2qOPPW7Hjx+3xpMnbVlNreXlF3jnIizBRvXU089Yff1WKxs5yoaUDLN1r653fHMRliCjKh5SamfPnrXKMeM7jhUWl1hLS4tNnnJJbC7CE2RUc6//uf3tb39POf7uu+/Z/AULU44jLEFGde8f77NNm95MOb5y1Wqn63GEJcioHnl0sXf/9PTSZ+2ll+tSjkfa2trOi29t6Hzfw8e3NgmcqSAXZFTX3/CLbvdUC37/h5TjCEuQUXV399fc3GLVF383NhfhCTKqyNJnnrUtW+rtouHlLrJ161619a9t8M5FWIKNKnqi/tjiJR1P1GtqlvNEvYcINir0XEQFOaKCHFFBjqggR1SQIyrIERXkiApyRAU5ooIcUUGOqCBHVJAjKsgRFeSICnJEBTmighxRQY6oIEdUkCMqyBEV5IgKckQFOaKCHFFBjqggR1SQIyrIERXkiApyRAU5ooIcUUGOqCBHVJAjKsgRFeSICnJEBblgo8rJ7WeLH19iDQ0N1tjYaGvWvuheeuSbi7AEG1X0Lpq3N7/jXng0YGCRrX3xJXvjjU3euQhLkFGl9c627dt3WMWosR3HxoyrstbWVuuT1y82F+HpMXuqCVXV7n1/0du1fOMIR/BRpWdkW+XocfbW25vtgQcXeecgLMFHNe+e+e6l03v27LWhpcO9cyLzFyw8L761ofN9Dx/f2iQkHlVJaVnsjeWzrpkTG++Vlunu+pY88aS7E+xuT+X7Q/bxrQ2d73v4+NYmocfsqaLN+5kzZ2zaldO94whHkFFVTay23bv3xDbl0RmqubnZLvvB5bG5CE+QUaVn5Nj+/QesdvlKKywa6qx+7nnbuXOXG/OtQTiCvfxFDz3r6ta5F3N//PEntnLVap6o9xA9Zk+FnoOoIEdUkCMqyBEV5IgKckQFOaKCHFFBjqggR1SQIyrIERXkiApyRAU5ooIcUUGOqCBHVJAjKsgRFeSICnJEBTmighxRQY6oIEdUkCMqyBEV5IgKckQFOaKCHFFBjqggR1SQIyrIERXkiApyRAU5ooIcUUGOqCBHVJDrEVE98uhiO3DgA8vrO8A7jrAEH9WVV8+006dPW+WY8d5xhCfoqPoXFFnD0aN27dwbvOMIU9BRvfDCGnvyqaXeMYQr2KhmzJxtLS0t7sWRTU1NVl+/1SZVT/XORViCjWrvvn0upPKKMe4yuPjxJe6FkgMGFnnnd36597n41obO9z18fGuTkHhUvre9Dysrd/95RHllx7z0jGw7euyYXXvd9bH1CE+QZ6qJk6ZYc3NLyvEtW+pt3j3zU44jLEFGld9/kLW2trr3KLcf653Zx71LedbsObG5CE+we6ra2hW24fWNNrR0uHvb+7KaWtuxY6el9c72zkc4go0qu0++PbZ4iZ04ccLd/a1+7nkrGFTsnYuwBBsVei6ighxRQY6oIEdUkCMqyBEV5IgKckQFOaKCHFFBjqggR1SQIyrIERXkiApyRAU5ooIcUUGOqCBHVJAjKsgRFeSICnJEBTmighxRQY6oIEdUkCMqyBEV5IgKckQFOaKCHFFBjqggR1SQIyrIERXkiApyRAU5ooJcsFH17TfQnnjiKWtoaLCTJ0/Z00uf5cXcPUSwUW3c+Bf785q1Vjyk1AYWDrYVK1e5n31zEZYgoxo+osK9RLLzC47aX9fW3ZtJEY4goxpfNdlFFV0C24/l5Re4qCZOvjg2F+EJMqqMrFw7cuSI20f1G1BohcUl9tzzL7jQBg+9yLsG4Qh2TxWdraLX254+fdp27drtNuzbtm/3zo3MX7DwvPjWhs73PXx8a5OQeFS+F3N3nXPFtKvd2LSrZqSMtfP9Ifv41obO9z18fGuTEOyZql1Obj87/OGH9uc/c+fXUwQf1aKHH3WvvI3eo+wbR3iCjmripCl29uxZ+8WNN3vHEaZgo0rPyLbdu/fY+tc2WK+0TO8chCn4yx96HqKCHFFBjqggR1SQIyrIERXkiApyRAU5ooIcUUGOqCBHVJAjKsgRFeSICnJEBTmighxRQY6oIEdUkCMqyBEV5IgKckQFOaKCHFFBjqggR1SQIyrIERXkiApyRAU5ooIcUUGOqCBHVJAjKsgRFeSICnJEBTmighxRQY6oIEdUkCMqyBEV5IgKckQFOaKCHFFBjqggR1SQIyrIERXkiApyRAU5ooIcUUGOqCBHVJAjKsgRFeSICnJEBTmighxRQY6oIEdUkCMqyBEV5IgKckQFOaKCHFFBjqggR1SQIyrIERXkiApyRAU5ooIcUUGOqCBHVJAjKsgRFeSICnJEBTmighxRQY6oIEdUkCMqyBEV5IgKckQFOaKCHFFBjqggR1SQIyrIERXkiApyRAU5ooIcUUGOqCBHVJAjKsgRFeSICnJEBTmighxRQY6oIEdUkCMqyBEV5IgKckQFOaKCHFFBjqggR1SQIyrIERXkiApyRAU5ooIcUUGOqCBHVJAjKsgRFeSICnJEBTmighxRQY6oIEdUkCMqyBEV5IgKckQFOaKCHFFBjqggR1SQIyrIJR7VL2682c6ePWsjK0bHjmdm59lDix62hoYG++STT622doX1G1AYm4MwJRrVHXf+ypqbW6ytrS0lqgcfWmTvvrfNSi8aYYVFQ+3V9a9ZXd262ByEKbGofnv3PXbixAmbdc0cb1R///tHNmv2nI6fJ06aYi0tLZaV0zc2D+FJLKorpl1toyrHubOQL6roshcF1/7zpOqpdubMGUvPyInNQ3gS31N1F9Uf7v2Tu/yVlJa5OeteXW/zFyyMzUGYgo0qL7/Atm3f7sYihw4ftglV1bE5nbXP+yq+taHzfQ8f39okXPCoojNN5y/e+ZIW8UWVnpFtO3fuslWrn7PC4hLrX1BkDz/ymJ061eR+7rwe4QnyTPW9y37ojnV+hNArLdMaGxtt7vU/7ziGMAUZ1dRLLnXHoktg+7HvpGfZZ599FrsjRJiCjCp68Hnw0CFbvmKVG4/OWO5B6NGjlt9/UGw9wpNYVO2XuK6iPVg0PnxEha1Z+6J7mh49z1r/2garHDM+5XMQnsTPVPjmISrIERXkiApyRAU5ooIcUUGOqCBHVJAjKsgRFeSICnJEBTmighxRQY6oIEdUkCMqyBEV5IgKckQFOaKCHFFBjqggR1SQIyrIERXkiApyRAU5ooIcUUGOqCBHVJAjKsgRFeSICnJEBTmighxRQY6oIEdUkCMqyBEV5IgKckQFOaKCHFFBjqggR1SQIyrIERXkiApyRAU5ooIcUUGOqCBHVJAjKsgRFeSICnJEBTmighxRQY6oIEdUkCMqyBEV5IgKckQFOaKCHFFBjqggR1SQIyrIERXkiApyRAU5ooJcYlH1zsi0+24Zah+tHWufvTrOVs4fbgX9sjvGc3Ky7PE7S+3oy2Pt5Gvjbc29ZVZUkBP7DIQpsagevq3E3ls6yoYN6WMD+2fbK/ePtPUPjewYr7l7mG1eUmEXDc61AV/GtvaPZbbpsfLYZyBMiUQVnaWaXp9gkyvzO45NKO9rbW9XWW6fLEtLz7Qdz4yyiovyOsbHlOW58T45mR3HEKZEooqiGT60T+xY1ZdR/e/mKisc4L/ERdG1vFllGV8G6RtHOILZqN9/S4kdfmFMyvH03hlWOSzX3v7yUvjgrSUp4whPEFGNG9nXmjdNsOumDUoZmzd3sDuD7a2ttJKi+Nmts/9ZUXlefGtD5/sePr61SbjgUUUhRFG0m31ZQWy8eGAfdwe4/HfDY8fb9UrLcHd9T9xVag0vje12TzXqy/3X+fCtDZ3ve/j41iYh0TNVfl627fvyf2FvfnlXF23efXPaRfuwz9+YYNOmDPCOIxyJRZWVlWXvLCm3vctHW15uVmws2rTvqamMbcqjM1S0Ub+sqn9sLsKTSFTRWafuvhHusjd4UOrdXrQ5P7BqtNXeM9zdDUZW/3647Vo2yo11nY+wJBLVjEsGuP1V9Kzq7FsTYnuuq6b+40wUPfSMwouetn/yyj+euPNEvWdIdE+FbyaighxRQY6oIEdUkCMqyBEV5IgKckQFOaKCHFFBjqggR1SQIyrIERXkiApyRAU5ooIcUUGOqCBHVJAjKsgRFeSICnJEBTmighxRQY6oIEdUkCMqyBEV5IgKckQFOaKCHFFBjqggR1SQIyrIERXkiApyRAU5ooIcUUGOqCBHVJAjKsgRFeSICnJEBTmighxRQY6oIEdUkCMqyBEV5IgKckQFOaKCHFFBjqggl1hUvTP72J/ue8A++uiIHT9+3FauWm0Fg4rdWPXF37W2tjavhxY9nPJZCEtiUS1a9Ii9+942G1ZWbgMLB1td3Tp7df1r3rmRfgMK7bPPPrNZs+d4xxGORKKKzlKnTjXZ5CmXdBybUFVtra2tltu3f2xuu3n3zLeDhw7Zd9KzvOMIRyJRpfXOtuEjKmLHqiZWu8tbYdHQ2PFIRlauHT12zG697ZcpYwhPMBv1++5/0A4dPuwdu+E/bnT7ruw++d5xhCWIqMZNmGRffPGFXTv3hpSxXmmZtnffPvvDvX9MGets/oKF58W3NnS+7+HjW5uECx5VSWlZ7O5t1jXxjXbR4FJ3B7h8xarY8XbTrpxun3/+uQ0qHOIdb+f7Q/bxrQ2d73v4+NYmIdEzVX7/Qe4stGnTm27z7puzceNf7Jlnl3nHEKbEosrK6WubN79je/bus7z8Au+cseMnujvCilFjveMIUyJRRXd/0XOp6LJXPKTUOycSXRLXrXvVO4ZwJRLV9Bmz3P4qelbV0tIS23NdNX2mmxPttaLxiy+5NGU9wpbongrfTEQFOaKCHFFBjqggR1SQIyrIERXkiApyRAU5ooIcUUGOqCBHVJAjKsgRFeSICnJEBTmighxRQY6oIEdUkCMqyBEV5IgKckQFOaKCHFFBjqggR1SQIyrIERXkiApyRAU5ooIcUUGOqCBHVJAjKsgRFeSICnJEBTmighxRQY6oIEdUkCMqyBEV5IgKckQFOaKCHFFBjqggR1SQIyrIERXkiApyRAU5ooIcUUGOqCBHVJAjKsgRFeSICnJEBTmighxRQY6oIEdUkCMqyBEV5IgKckQFOaKCHFFBjqggR1SQIyrIERXkiApyRAU5ooIcUUGOqCBHVJAjKsgRFeSICnJEBTmighxRQY6oIEdUkCMqyBEV5IgKckQFOaKCHFFBjqggR1SQIyrIERXkiApyRAU5ooIcUUGOqCBHVJAjKsgRFeSICnJEBTmighxRQY6oIEdUkCMqyBEV5IgKckQFOaKCHFFBjqggR1SQIyrIERXkiApyRAU5ooIcUUGOqCBHVJAjKsgRFeSICnJEBTmighxRQY6oIEdUkCMqyBEV5IgKckQFOaKCHFFBjqggR1SQSyyqnNx+tvjxJdbQ0GCNjY22Zu2LVlhc4p37yKOL7cCBDyyv7wDvOMKSWFQ1Ncvt7c3v2EXDy23AwCJb++JL9sYbm1LmXXn1TDt9+rRVjhmfMoYwJRJVWu9s2759h1WMGttxbMy4KmttbbU+ef06jvUvKLKGo0ft2rk3dBxD+ILZU02oqrbm5hbLyMrtOPbCC2vsyaeWxuYhfIlHlZ6RbZWjx9lbb2+2Bx5c1HF8xszZ1tLSYjt37rKmpiarr99qk6qnxtYiTIlHNe+e+dbW1mZ79uy1oaXDO47v3bfPhVReMcZdBqNN/fHjx93+q/P6dtFnnA/f2tD5voePb20SLnhUJaVlsS8+65o5sfFeaZnurm/JE0+6O8FoTzWsrNzNHVFe2TEvOqMdPXbMrr3u+th6hCeYPVW0eT9z5oxNu3K6TZw0xe2vus7ZsqXendm6HkdYEomqamK17d69J7Ypj85Qzc3NdtkPLrf8/oPcnWD0uKF9vHdmH/v4409s1uz4mQ7hSSSq9Iwc27//gNUuX2mFRUOd1c897zbl0Vg0p7Z2hW14faPbZ0Xjy2pqbceOne6M1vXzEJbELn/RWaiubp3bfEdnoJWrVseeqGf3ybfHFi+xEydOuLu/KLqCQcWxz0CYgtlT4ZuDqCBHVJAjKsgRFeSICnJEBTmighxRQY6oIEdUkCMqyBEV5IgKckQFOaKCHFFBjqggR1SQIyrIERXkiApyRAU5ooIcUUGOqCBHVJAjKsgRFeSICnJEBTmighxRQY6oIEdUkCMqyBEV5IgKckQFOaKCHFFBjqggR1SQIyrIERXkiApyRAU5ooIcUUGOqCBHVJAjKsgRFeSICnJEBTmighxRQY6oIEdUkCMqyBEV5IgKckQFOaKCHFFBjqggR1SQIyrIERXkiApyRAU5ooIcUUGOqCBHVJAjKsgRFeSICnJEBTmighxRQY6oIEdUkCMqyBEV5IgKckQFOaKCHFFBjqggR1SQIyrIERXkiApyRAU5ooIcUUGOqCBHVJAjKsgRFeSICnJEBTmighxRQY6oIEdUkCMqyBEV5IgKckQFOaKCHFFBjqggR1SQIyrIERXkiApyRAU5ooIcUUGOqCBHVJAjKsgRFeSICnJEBTmighxRQY6oIEdUkCMqyBEV5IgKckQFOaKCHFFBjqggR1SQIyrIERXkiApyRAU5ooIcUUGOqCBHVJAjKsgRFeSCiOqq6TOtra3NqiZWdxzrlZZpp041uePt6uu3xtYhTIlHNbBwsB079nFKVENKhtmnn34am4ueIfGo6urW2bbt2+3IkSOxqC6/4irbsqU+Nhc9Q6JR3XjTLXby5CkbVlaeEtXtd9xlNTXLY/PRMyQWVRRSU1OT/eSn17mfu0b11NPPWGNjo4uu4ehRe3ZZjeX3H9QxjnAlElV6RrZt3fquC6X9WNeoioeU2viqyZaZnWflFWPc/JfrXukY72r+goXnxbc2dL7v4eNbm4QLHlVJaVnsDm7WNXPcH8D77++3nNx+HfO6RtXVlKnfc+vz8gu8413/gLvjWxs63/fw8a1NQiJnqg2vb4yF1lm0cfetie4Go/GRFaO94whHohv1zr7qTDV9xiz33Cq6HPrGEY4go4rCqV2+0j1WiC6Rk6qn2sGDB+3Ou36dsg7hCTKq9Iwc+81v59mBAx9Yc3OzHTp82G665Vb3lL3rOoQnmKjwzUFUkCMqyBEV5IgKckQFOaKCHFFBjqggR1SQIyrIERXkiApyRAU5ooIcUUGOqCBHVJAjKsgRFeSICnJEBTmighxRQY6oIEdUkCMqyBEV5IgKckQFOaKCHFFBjqggR1SQIyrIERXkiApyRAU5ooIcUUGOqCBHVJAjKsgRFeSICnJEBTmighxRQY6oIEdUkCMqyBEV5IgKckQFOaKCHFFBjqggR1SQIyrIERXkiApyRAU5ooIcUUGOqCBHVJAjKsgRFeSICnJEBTmighxRQY6oIEdUkCMqyBEV5IgKckQFOaKCHFFBjqggR1SQIyrIERXkiApyRAU5ooIcUUGOqCBHVJAjKsgRFeSICnJEBTmighxRQY6oIEdUkCMqyBEV5IgKckQFOaKCHFFBjqggR1SQIyrIERXkiApyRAU5ooIcUUGOqCBHVJAjKsgRFeSICnJEBTmighxRQY6oIEdUkCMqyBEV5IgKckQFOaKCHFFBjqggR1SQIyrIERXkiApyRAU5ooIcUUGOqCBHVJAjKsgRFeSICnJEBTmighxRQY6oIEdUkCMqyBEV5IgKckQFucSi6pWWaadONVlbW1uH+vqt3rlXTZ/pxqsmVnvHEZbEohpSMsw+/fRT71hnAwsH27FjHxNVD5JYVJdfcZVt2VLvHeusrm6dbdu+3Y4cOUJUPURiUd1+x11WU7PcO9buxptusZMnT9mwsnKi6kESi+qpp5+xxsZGF03D0aP27LIay+8/qGM8Cqmpqcl+8tPr3M9E1XMkFlXxkFIbXzXZMrPzrLxijG3d+q69XPeKG0vPyHY/R6G1z/+qqDpv+M/FtzZ0vu/h41ubhAseVUlpWeyLz7pmjnfelKnfc+N5+QU2f8FCe//9/ZaT269jnDNVz5HYmaqr6G4wimpkxWjb8PrGWIidRRt333qEI5iops+Y5Z5bRZdD3zhnqp4jkaiicGqXr3SPFaJL3KTqqXbw4EG7865fe+dHiKrnSCSq9Iwc+81v59mBAx9Yc3OzHTp82G665Vb3lN03P0JUPUcwlz98cxAV5IgKckQFOaKCHFFBjqggR1SQIyrIERXkiApyRAU5ooIcUUGOqCBHVJAjKsgRFeSICnJEBTmighxRQY6oIEdUkCMqyBEV5IgKckQFOaKCHFFBjqggR1SQIyrIERXkiApyRAU5ooIcUUGOqCBHVJAjKsgRFeSICnJEBTmighxRQY6oIEdUkCMqyBEV5IgKckQFOaKCHFFBjqggR1SQIyrIERXkiApyRAU5ooIcUUGOqCBHVJAjKsgRFeSICnJEBTmighxRQY6oIEdUkCMqyBEV5IgKckQFOaKCHFFBjqggR1SQIyrIERXkiApyRAU5ooIcUUGOqCBHVJAjKsgRFeSICnJEBTmighxR4Sv1Ssu0S7//Q1u1arV3vCuiQrfSemfbjB/PtrpX1tn+/fsd37yuiAopsnL62nVzb7BNm97siImo8P+S33+g3XrbL23r1q0pMbXzreuKqGCFxUPt7nm/s507d3pD6sy3viui+hYrG1Fh993/oO3bt88bkI/vc7oiqm+hCVWT7cknn7b333/fG865+D6vK6L6FiKqhOzff+CC8/3erxOXP1wwbNRxwfBIARcMDz9xwfC3aXDB8DeUkTiighxRQY6oIEdUkCMqyBEV5IgKckQFOaKCHFFBjqggR1SQ+9ZF1dLSYm1tbTasrNw73m7s+IluXmNjo3e8s01vvuXm/uzaubHj7b/rXNa/tiG25t/m/NT9c0zR7/3888/tr389aIsWPWKFxSWxeSEjqm4kEdWTTy31zolEfx2XfPey2OeHiqi6oYzqq35X5Ac/usLNjdb8+jd3W/GQUsvuk2+jx06w+x94yP11TKqe6l0bGqLqxtcdVXSJi+Y+vuQJ73hPQlTd+LqjemjRw27uHXf+yjvekxBVN77uqKL9Umtrq3300RGbUFXtndNTEFU3vu6oIrff+d/W3Nzs4tq48S92483/aYMKh3jnhoyouqGMqjs1Nctj8yNlI0e5jfnBgwfdnOgz6urWWeWY8SlzQ0VU3Ugqqs4qRo11e63m5hb3zIq7v0Cdb1TDR1S4edF/odH//803p93Onbvc3BkzZ8eOn+/v+ipz/v1n7nO2bKn3joeGqLqRmZ1nZ86ccXMv/f6PvHMi/QYUun1QNG9U5bjYmCqq6JlV9DnHjn3sHQ8NUZ3DmrUvurnRmSgjK9c7p/0puO/f4vLP/K6Jky+2wUMv8o7Nvf7n7nO2bd/uHQ8NUZ1DtKc5ffq0m7933z67YtrVltu3vzuLTZw0xTa8vtGNRabPmJWy/nx/V2HRUGtqanLmL1joNutRxEWDS+3mW26zkydPuc/55e13eteH5lsbVXei/2I7z49CijbrvrmRaM9123/dHlvT7p8J+J7fLTjnX9tLL9dZesa593ahIKouukYVic4kf7rvAduzZ68bj/Za0T89EP3b6MorxqTMb/fPRBUZN2GSLauptQ8//Jt98cUXLuY333rbXf6if5+Bb02IvnVR4cIjKsgRFeSICnJEBTmighxRQY6oIEdUkCMqyBEVxDLs/wDBEhfXizOaAgAAAABJRU5ErkJggg==;imageBorder=default;aspect=fixed;" vertex="1" parent="1">
          <mxGeometry x="1110" y="40" width="135" height="1000" as="geometry" />
        </mxCell>
        <mxCell id="b--Z6cr3aXD35UnNznCl-8" value="" style="rounded=0;whiteSpace=wrap;html=1;gradientColor=light-dark(#000000,#006633);fillColor=light-dark(#FFFFFF,#990000);strokeColor=none;opacity=25;" vertex="1" parent="1">
          <mxGeometry x="1110" y="40" width="135" height="1000" as="geometry" />
        </mxCell>
        <mxCell id="b--Z6cr3aXD35UnNznCl-10" value="Movie" style="text;html=1;align=left;verticalAlign=middle;whiteSpace=wrap;rounded=0;fontSize=30;fontFamily=Noto Sans;fontSource=https%3A%2F%2Ffonts.googleapis.com%2Fcss%3Ffamily%3DNoto%2BSans;fontStyle=0" vertex="1" parent="1">
          <mxGeometry x="233" y="990" width="137" height="50" as="geometry" />
        </mxCell>
        <mxCell id="b--Z6cr3aXD35UnNznCl-11" value="YouTube" style="text;html=1;align=left;verticalAlign=middle;whiteSpace=wrap;rounded=0;fontSize=30;fontFamily=Noto Sans;fontSource=https%3A%2F%2Ffonts.googleapis.com%2Fcss%3Ffamily%3DNoto%2BSans;" vertex="1" parent="1">
          <mxGeometry x="552" y="990" width="170" height="50" as="geometry" />
        </mxCell>
        <mxCell id="b--Z6cr3aXD35UnNznCl-12" value="Apple Music" style="text;html=1;align=left;verticalAlign=middle;whiteSpace=wrap;rounded=0;fontSize=30;fontFamily=Noto Sans;fontSource=https%3A%2F%2Ffonts.googleapis.com%2Fcss%3Ffamily%3DNoto%2BSans;" vertex="1" parent="1">
          <mxGeometry x="874" y="990" width="206" height="50" as="geometry" />
        </mxCell>
        <mxCell id="b--Z6cr3aXD35UnNznCl-13" value="-23 LUFS" style="text;html=1;align=center;verticalAlign=middle;whiteSpace=wrap;rounded=0;fontSize=24;fontFamily=Noto Sans;fontSource=https%3A%2F%2Ffonts.googleapis.com%2Fcss%3Ffamily%3DNoto%2BSans;fontStyle=1" vertex="1" parent="1">
          <mxGeometry x="85" y="390" width="120" height="50" as="geometry" />
        </mxCell>
        <mxCell id="b--Z6cr3aXD35UnNznCl-14" value="-14 LUFS" style="text;html=1;align=center;verticalAlign=middle;whiteSpace=wrap;rounded=0;fontSize=24;fontFamily=Noto Sans;fontSource=https%3A%2F%2Ffonts.googleapis.com%2Fcss%3Ffamily%3DNoto%2BSans;fontStyle=1" vertex="1" parent="1">
          <mxGeometry x="405" y="230" width="120" height="50" as="geometry" />
        </mxCell>
        <mxCell id="b--Z6cr3aXD35UnNznCl-15" value="-16 LUFS" style="text;html=1;align=center;verticalAlign=middle;whiteSpace=wrap;rounded=0;fontSize=24;fontFamily=Noto Sans;fontSource=https%3A%2F%2Ffonts.googleapis.com%2Fcss%3Ffamily%3DNoto%2BSans;fontStyle=1" vertex="1" parent="1">
          <mxGeometry x="725" y="280" width="120" height="50" as="geometry" />
        </mxCell>
        <mxCell id="b--Z6cr3aXD35UnNznCl-16" value="" style="endArrow=baseDash;startArrow=baseDash;html=1;rounded=0;dashed=1;strokeWidth=4;startFill=0;endFill=0;jumpStyle=none;startSize=12;endSize=12;" edge="1" parent="1">
          <mxGeometry width="50" height="50" relative="1" as="geometry">
            <mxPoint x="259" y="850" as="sourcePoint" />
            <mxPoint x="259" y="100" as="targetPoint" />
          </mxGeometry>
        </mxCell>
        <mxCell id="b--Z6cr3aXD35UnNznCl-17" value="" style="endArrow=baseDash;startArrow=baseDash;html=1;rounded=0;dashed=1;strokeWidth=4;startFill=0;endFill=0;jumpStyle=none;startSize=12;endSize=12;" edge="1" parent="1">
          <mxGeometry width="50" height="50" relative="1" as="geometry">
            <mxPoint x="580" y="559" as="sourcePoint" />
            <mxPoint x="580" y="100" as="targetPoint" />
          </mxGeometry>
        </mxCell>
        <mxCell id="b--Z6cr3aXD35UnNznCl-18" value="" style="endArrow=baseDash;startArrow=baseDash;html=1;rounded=0;dashed=1;strokeWidth=4;startFill=0;endFill=0;jumpStyle=none;startSize=12;endSize=12;" edge="1" parent="1">
          <mxGeometry width="50" height="50" relative="1" as="geometry">
            <mxPoint x="900" y="670" as="sourcePoint" />
            <mxPoint x="900" y="100" as="targetPoint" />
          </mxGeometry>
        </mxCell>
        <mxCell id="b--Z6cr3aXD35UnNznCl-19" value="Games" style="text;html=1;align=left;verticalAlign=middle;whiteSpace=wrap;rounded=0;fontSize=30;fontFamily=Noto Sans;fontSource=https%3A%2F%2Ffonts.googleapis.com%2Fcss%3Ffamily%3DNoto%2BSans;" vertex="1" parent="1">
          <mxGeometry x="1263" y="990" width="206" height="50" as="geometry" />
        </mxCell>
        <mxCell id="b--Z6cr3aXD35UnNznCl-21" value="" style="endArrow=baseDash;startArrow=baseDash;html=1;rounded=0;dashed=1;strokeWidth=4;startFill=0;endFill=0;jumpStyle=none;startSize=12;endSize=12;" edge="1" parent="1">
          <mxGeometry width="50" height="50" relative="1" as="geometry">
            <mxPoint x="1319" y="760" as="sourcePoint" />
            <mxPoint x="1319" y="100" as="targetPoint" />
          </mxGeometry>
        </mxCell>
        <mxCell id="b--Z6cr3aXD35UnNznCl-22" value="" style="endArrow=baseDash;startArrow=baseDash;html=1;rounded=0;dashed=1;strokeWidth=4;startFill=0;endFill=0;jumpStyle=none;startSize=12;endSize=12;" edge="1" parent="1">
          <mxGeometry width="50" height="50" relative="1" as="geometry">
            <mxPoint x="1419" y="680" as="sourcePoint" />
            <mxPoint x="1419" y="140" as="targetPoint" />
          </mxGeometry>
        </mxCell>
        <mxCell id="b--Z6cr3aXD35UnNznCl-23" value="" style="endArrow=baseDash;startArrow=baseDash;html=1;rounded=0;dashed=1;strokeWidth=4;startFill=0;endFill=0;jumpStyle=none;startSize=12;endSize=12;" edge="1" parent="1">
          <mxGeometry width="50" height="50" relative="1" as="geometry">
            <mxPoint x="1519" y="560" as="sourcePoint" />
            <mxPoint x="1520" y="120" as="targetPoint" />
          </mxGeometry>
        </mxCell>
        <mxCell id="b--Z6cr3aXD35UnNznCl-24" value="Home Cinema" style="text;html=1;align=left;verticalAlign=middle;whiteSpace=wrap;rounded=0;fontSize=24;fontFamily=Noto Sans;fontSource=https%3A%2F%2Ffonts.googleapis.com%2Fcss%3Ffamily%3DNoto%2BSans;" vertex="1" parent="1">
          <mxGeometry x="1310" y="770" width="206" height="50" as="geometry" />
        </mxCell>
        <mxCell id="b--Z6cr3aXD35UnNznCl-25" value="-21 LUFS" style="text;html=1;align=left;verticalAlign=middle;whiteSpace=wrap;rounded=0;fontSize=24;fontFamily=Noto Sans;fontSource=https%3A%2F%2Ffonts.googleapis.com%2Fcss%3Ffamily%3DNoto%2BSans;fontStyle=1" vertex="1" parent="1">
          <mxGeometry x="1124" y="358" width="120" height="50" as="geometry" />
        </mxCell>
        <mxCell id="b--Z6cr3aXD35UnNznCl-26" value="-18 LUFS" style="text;html=1;align=left;verticalAlign=middle;whiteSpace=wrap;rounded=0;fontSize=24;fontFamily=Noto Sans;fontSource=https%3A%2F%2Ffonts.googleapis.com%2Fcss%3Ffamily%3DNoto%2BSans;fontStyle=1" vertex="1" parent="1">
          <mxGeometry x="1124" y="310" width="120" height="50" as="geometry" />
        </mxCell>
        <mxCell id="b--Z6cr3aXD35UnNznCl-27" value="-16 LUFS" style="text;html=1;align=left;verticalAlign=middle;whiteSpace=wrap;rounded=0;fontSize=24;fontFamily=Noto Sans;fontSource=https%3A%2F%2Ffonts.googleapis.com%2Fcss%3Ffamily%3DNoto%2BSans;fontStyle=1" vertex="1" parent="1">
          <mxGeometry x="1124" y="270" width="120" height="50" as="geometry" />
        </mxCell>
        <mxCell id="b--Z6cr3aXD35UnNznCl-28" value="Headphones" style="text;html=1;align=left;verticalAlign=middle;whiteSpace=wrap;rounded=0;fontSize=24;fontFamily=Noto Sans;fontSource=https%3A%2F%2Ffonts.googleapis.com%2Fcss%3Ffamily%3DNoto%2BSans;" vertex="1" parent="1">
          <mxGeometry x="1410" y="690" width="180" height="50" as="geometry" />
        </mxCell>
        <mxCell id="b--Z6cr3aXD35UnNznCl-29" value="Mobile" style="text;html=1;align=left;verticalAlign=middle;whiteSpace=wrap;rounded=0;fontSize=24;fontFamily=Noto Sans;fontSource=https%3A%2F%2Ffonts.googleapis.com%2Fcss%3Ffamily%3DNoto%2BSans;" vertex="1" parent="1">
          <mxGeometry x="1510" y="570" width="110" height="50" as="geometry" />
        </mxCell>
      </root>
    </mxGraphModel>
  </diagram>
</mxfile>
